<?xml version="1.0" encoding="utf-8"?>
<!-- Generator: Adobe Illustrator 18.1.0, SVG Export Plug-In . SVG Version: 6.00 Build 0)  -->
<!DOCTYPE svg PUBLIC "-//W3C//DTD SVG 1.1//EN" "http://www.w3.org/Graphics/SVG/1.1/DTD/svg11.dtd">
<svg version="1.1" id="レイヤー_1" xmlns="http://www.w3.org/2000/svg" xmlns:xlink="http://www.w3.org/1999/xlink" x="0px"
	 y="0px" viewBox="0 0 256 256" enable-background="new 0 0 256 256" xml:space="preserve">
<path d="M205.1,217.5c19.6-19.7,31.7-46.8,31.7-76.7C236.8,80.7,188.1,32,128,32S19.2,80.7,19.2,140.8c0,31,13,58.9,33.8,78.7
	l-25.6,25.6c-2.5,2.5-2.5,6.6,0,9.1c2.5,2.5,6.6,2.5,9.1,0l26.3-26.3c18.2,13.6,40.7,21.8,65.1,21.8c25.5,0,49-8.9,67.5-23.6
	l28.1,28.1c2.5,2.5,6.6,2.5,9.1,0c2.5-2.5,2.5-6.6,0-9.1L205.1,217.5z M183.7,94.1l-38.4,38.4c1.2,2.5,1.9,5.3,1.9,8.2
	c0,10.6-8.6,19.2-19.2,19.2s-19.2-8.6-19.2-19.2c0-0.8,0.1-1.6,0.2-2.3l-35.1-17.5c-3.2-1.6-4.4-5.4-2.9-8.6
	c1.6-3.2,5.4-4.4,8.6-2.9l35,17.5c3.5-3.3,8.1-5.4,13.3-5.4c3,0,5.7,0.7,8.2,1.9l38.4-38.4c2.5-2.5,6.5-2.5,9,0
	S186.2,91.6,183.7,94.1z"/>
<path d="M217.6,0c-9.8,0-19.7,3.7-27.2,11.2l-9.1,9.1l54.3,54.3l9.1-9.1c15-15,15-39.3,0-54.3v0C237.3,3.7,227.4,0,217.6,0L217.6,0z
	"/>
<path d="M38.4,0c-9.8,0-19.7,3.7-27.2,11.2v0c-15,15-15,39.3,0,54.3l9.1,9.1l54.3-54.3l-9.1-9.1C58.1,3.7,48.2,0,38.4,0L38.4,0z"/>
</svg>
