<?xml version="1.0" encoding="utf-8"?>
<!DOCTYPE svg PUBLIC "-//W3C//DTD SVG 1.1//EN" "http://www.w3.org/Graphics/SVG/1.1/DTD/svg11.dtd">
<svg version="1.1" id="alerm-edge" xmlns="http://www.w3.org/2000/svg" xmlns:xlink="http://www.w3.org/1999/xlink" x="0px"
	 y="0px" viewBox="0 0 256 256" enable-background="new 0 0 256 256" xml:space="preserve">
<path d="M183.7,85.1c-2.5-2.5-6.5-2.5-9,0l-38.4,38.4c-2.5-1.2-5.3-1.9-8.2-1.9c-5.2,0-9.8,2.1-13.3,5.4l-35-17.5
	c-3.2-1.6-7-0.3-8.6,2.9c-1.6,3.2-0.3,7,2.9,8.6l35.1,17.5c-0.1,0.8-0.2,1.5-0.2,2.3c0,10.6,8.6,19.2,19.2,19.2s19.2-8.6,19.2-19.2
	c0-3-0.7-5.7-1.9-8.2l38.4-38.4C186.2,91.6,186.2,87.6,183.7,85.1z"/>
<path d="M217.6,12.8c6.8,0,13.3,2.7,18.1,7.5c10,10,10,26.2,0,36.2l-36.2-36.2C204.3,15.5,210.8,12.8,217.6,12.8 M217.6,0
	c-9.8,0-19.7,3.7-27.2,11.2l-9.1,9.1l54.3,54.3l9.1-9.1c15-15,15-39.3,0-54.3v0C237.3,3.7,227.4,0,217.6,0L217.6,0z"/>
<path d="M38.4,12.8c6.8,0,13.3,2.7,18.1,7.5L20.3,56.5c-10-10-10-26.2,0-36.2C25.1,15.5,31.6,12.8,38.4,12.8 M38.4,0
	c-9.8,0-19.7,3.7-27.2,11.2v0c-15,15-15,39.3,0,54.3l9.1,9.1l54.3-54.3l-9.1-9.1C58.1,3.7,48.2,0,38.4,0L38.4,0z"/>
<path d="M205.1,217.5c19.6-19.7,31.7-46.8,31.7-76.7C236.8,80.7,188.1,32,128,32S19.2,80.7,19.2,140.8c0,31,13,58.9,33.8,78.7
	l-25.6,25.6c-2.5,2.5-2.5,6.6,0,9.1c2.5,2.5,6.6,2.5,9.1,0l26.3-26.3c18.2,13.6,40.7,21.8,65.1,21.8c25.5,0,49-8.9,67.5-23.6
	l28.1,28.1c2.5,2.5,6.6,2.5,9.1,0c2.5-2.5,2.5-6.6,0-9.1L205.1,217.5z M32,140.8c0-52.9,43.1-96,96-96s96,43.1,96,96s-43.1,96-96,96
	S32,193.7,32,140.8z"/>
</svg>
