<?xml version="1.0" encoding="utf-8"?>
<!DOCTYPE svg PUBLIC "-//W3C//DTD SVG 1.1//EN" "http://www.w3.org/Graphics/SVG/1.1/DTD/svg11.dtd">
<svg version="1.1" id="archive-download" xmlns="http://www.w3.org/2000/svg" xmlns:xlink="http://www.w3.org/1999/xlink" x="0px"
	 y="0px" viewBox="0 0 256 256" enable-background="new 0 0 256 256" xml:space="preserve">
<path d="M230.4,0H25.6C11.5,0,0,11.5,0,25.6v204.8C0,244.5,11.5,256,25.6,256H128l-64-64l9.1-9.1l48.5,48.5V128h12.8v103.5
	l48.5-48.5l9.1,9.1l-64,64h102.4c14.1,0,25.6-11.5,25.6-25.6V25.6C256,11.5,244.5,0,230.4,0z M243.2,76.8h-64v25.6H76.8l0-25.6h-64
	V25.6c0-7.1,5.7-12.8,12.8-12.8h204.8c7.1,0,12.8,5.7,12.8,12.8V76.8z"/>
<path d="M217.6,57.6c0,3.5-2.9,6.4-6.4,6.4H44.8c-3.5,0-6.4-2.9-6.4-6.4l0,0c0-3.5,2.9-6.4,6.4-6.4h166.4
	C214.7,51.2,217.6,54.1,217.6,57.6L217.6,57.6z"/>
<path d="M217.6,32c0,3.5-2.9,6.4-6.4,6.4H44.8c-3.5,0-6.4-2.9-6.4-6.4l0,0c0-3.5,2.9-6.4,6.4-6.4h166.4
	C214.7,25.6,217.6,28.5,217.6,32L217.6,32z"/>
</svg>
