<?xml version="1.0" encoding="utf-8"?>
<!-- Generator: Adobe Illustrator 18.1.0, SVG Export Plug-In . SVG Version: 6.00 Build 0)  -->
<!DOCTYPE svg PUBLIC "-//W3C//DTD SVG 1.1//EN" "http://www.w3.org/Graphics/SVG/1.1/DTD/svg11.dtd">
<svg version="1.1" id="レイヤー_1" xmlns="http://www.w3.org/2000/svg" xmlns:xlink="http://www.w3.org/1999/xlink" x="0px"
	 y="0px" viewBox="0 0 256 256" enable-background="new 0 0 256 256" xml:space="preserve">
<path d="M230.4,0H25.6C11.5,0,0,11.5,0,25.6v204.8C0,244.5,11.5,256,25.6,256h96V152.5l-48.5,48.5L64,192l64-64l64,64l-9.1,9.1
	l-48.5-48.5V256h96c14.1,0,25.6-11.5,25.6-25.6V25.6C256,11.5,244.5,0,230.4,0z M243.2,76.8h-64v25.6H76.8l0-25.6h-64V25.6
	c0-7.1,5.7-12.8,12.8-12.8h204.8c7.1,0,12.8,5.7,12.8,12.8V76.8z"/>
</svg>
