<?xml version="1.0" encoding="utf-8"?>
<!-- Generator: Adobe Illustrator 18.1.0, SVG Export Plug-In . SVG Version: 6.00 Build 0)  -->
<!DOCTYPE svg PUBLIC "-//W3C//DTD SVG 1.1//EN" "http://www.w3.org/Graphics/SVG/1.1/DTD/svg11.dtd">
<svg version="1.1" id="レイヤー_1" xmlns="http://www.w3.org/2000/svg" xmlns:xlink="http://www.w3.org/1999/xlink" x="0px"
	 y="0px" viewBox="0 0 256 256" enable-background="new 0 0 256 256" xml:space="preserve">
<path d="M230.4,25.6c7.1,0,12.8,5.7,12.8,12.8v140.8c0,7.1-5.7,12.8-12.8,12.8h-64H163l-3,1.7l-70.4,40.3v-29.1V192H76.8H25.6
	c-7.1,0-12.8-5.7-12.8-12.8V38.4c0-7.1,5.7-12.8,12.8-12.8H230.4 M230.4,12.8H25.6C11.5,12.8,0,24.3,0,38.4v140.8
	c0,14.1,11.5,25.6,25.6,25.6h51.2V256l89.6-51.2h64c14.1,0,25.6-11.5,25.6-25.6V38.4C256,24.3,244.5,12.8,230.4,12.8L230.4,12.8z"/>
<g>
	<circle cx="128" cy="108.8" r="19.2"/>
</g>
<g>
	<circle cx="192" cy="108.8" r="19.2"/>
</g>
<g>
	<circle cx="64" cy="108.8" r="19.2"/>
</g>
</svg>
