<?xml version="1.0" encoding="utf-8"?>
<!-- Generator: Adobe Illustrator 18.1.0, SVG Export Plug-In . SVG Version: 6.00 Build 0)  -->
<!DOCTYPE svg PUBLIC "-//W3C//DTD SVG 1.1//EN" "http://www.w3.org/Graphics/SVG/1.1/DTD/svg11.dtd">
<svg version="1.1" id="レイヤー_1" xmlns="http://www.w3.org/2000/svg" xmlns:xlink="http://www.w3.org/1999/xlink" x="0px"
	 y="0px" viewBox="0 0 256 256" enable-background="new 0 0 256 256" xml:space="preserve">
<path d="M230.4,12.8H25.6C11.5,12.8,0,24.3,0,38.4v140.8c0,14.1,11.5,25.6,25.6,25.6h64v38.4l76.8-38.4h64
	c14.1,0,25.6-11.5,25.6-25.6V38.4C256,24.3,244.5,12.8,230.4,12.8z M64,128c-10.6,0-19.2-8.6-19.2-19.2S53.4,89.6,64,89.6
	s19.2,8.6,19.2,19.2S74.6,128,64,128z M128,128c-10.6,0-19.2-8.6-19.2-19.2s8.6-19.2,19.2-19.2s19.2,8.6,19.2,19.2
	S138.6,128,128,128z M192,128c-10.6,0-19.2-8.6-19.2-19.2s8.6-19.2,19.2-19.2s19.2,8.6,19.2,19.2S202.6,128,192,128z"/>
</svg>
