<?xml version="1.0" encoding="utf-8"?>
<!-- Generator: Adobe Illustrator 18.1.0, SVG Export Plug-In . SVG Version: 6.00 Build 0)  -->
<!DOCTYPE svg PUBLIC "-//W3C//DTD SVG 1.1//EN" "http://www.w3.org/Graphics/SVG/1.1/DTD/svg11.dtd">
<svg version="1.1" id="レイヤー_1" xmlns="http://www.w3.org/2000/svg" xmlns:xlink="http://www.w3.org/1999/xlink" x="0px"
	 y="0px" viewBox="0 0 256 256" enable-background="new 0 0 256 256" xml:space="preserve">
<path d="M230.4,0H128c-14.1,0-25.6,11.5-25.6,25.6v64c0,14.1,11.5,25.6,25.6,25.6c7.1,0,12.8,5.7,12.8,12.8v64
	c0,7.1-5.7,12.8-12.8,12.8H84.3L64,225.1v-20.3H25.6c-7.1,0-12.8-5.7-12.8-12.8v-64c0-7.1,5.7-12.8,12.8-12.8h76.8l-12.8-12.8h-64
	C11.5,102.4,0,113.9,0,128v64c0,14.1,11.5,25.6,25.6,25.6h25.6V256l38.4-38.4H128c14.1,0,25.6-11.5,25.6-25.6v-64
	c0-14.1-11.5-25.6-25.6-25.6c-7.1,0-12.8-5.7-12.8-12.8v-64c0-7.1,5.7-12.8,12.8-12.8h102.4c7.1,0,12.8,5.7,12.8,12.8v64
	c0,7.1-5.7,12.8-12.8,12.8H192v20.3l-20.3-20.3h-18.1l51.2,51.2v-38.4h25.6c14.1,0,25.6-11.5,25.6-25.6v-64
	C256,11.5,244.5,0,230.4,0z"/>
</svg>
