<?xml version="1.0" encoding="utf-8"?>
<!DOCTYPE svg PUBLIC "-//W3C//DTD SVG 1.1//EN" "http://www.w3.org/Graphics/SVG/1.1/DTD/svg11.dtd">
<svg version="1.1" id="balloon-chat-solid" xmlns="http://www.w3.org/2000/svg" xmlns:xlink="http://www.w3.org/1999/xlink" x="0px"
	 y="0px" viewBox="0 0 256 256" enable-background="new 0 0 256 256" xml:space="preserve">
<path d="M230.4,0H128c-14.1,0-25.6,11.5-25.6,25.6v64h38.4c14.1,0,25.6,11.5,25.6,25.6l38.4,38.4v-38.4h25.6
	c14.1,0,25.6-11.5,25.6-25.6v-64C256,11.5,244.5,0,230.4,0z"/>
<path d="M128,102.4H25.6C11.5,102.4,0,113.9,0,128v64c0,14.1,11.5,25.6,25.6,25.6h25.6V256l38.4-38.4H128
	c14.1,0,25.6-11.5,25.6-25.6v-64C153.6,113.9,142.1,102.4,128,102.4z"/>
</svg>
