<?xml version="1.0" encoding="utf-8"?>
<!DOCTYPE svg PUBLIC "-//W3C//DTD SVG 1.1//EN" "http://www.w3.org/Graphics/SVG/1.1/DTD/svg11.dtd">
<svg version="1.1" id="bell-edge" xmlns="http://www.w3.org/2000/svg" xmlns:xlink="http://www.w3.org/1999/xlink" x="0px" y="0px"
	 viewBox="0 0 20 20" enable-background="new 0 0 20 20" xml:space="preserve">
<path d="M19,14.5c0,0-2-0.5-3-1.5s-1-2-1-3V7c0-2-1.2-3.8-3-4.6V2c0-1.1-0.9-2-2-2S8,0.9,8,2v0.4C6.2,3.2,5,5,5,7c0,0,0,2.6,0,3
	c0,1,0,2-1,3s-3,1.5-3,1.5V17h5.1c0.3,1.2,1.2,3,3.9,3s3.6-1.8,3.9-3H19V14.5z M10,19c-1.9,0-2.6-1.1-2.8-2h5.7
	C12.6,17.9,11.9,19,10,19z M18,16H2v-0.8c0.8-0.3,1.9-0.8,2.7-1.5C6,12.4,6,11.1,6,10V7c0-1.6,0.9-3,2.4-3.7L9,3.1V2
	c0-0.6,0.4-1,1-1s1,0.4,1,1v1.1l0.6,0.3C13.1,4,14,5.4,14,7v3c0,1.1,0,2.4,1.3,3.7c0.8,0.8,1.9,1.3,2.7,1.5V16z"/>
</svg>
