<?xml version="1.0" encoding="utf-8"?>
<!-- Generator: Adobe Illustrator 18.1.0, SVG Export Plug-In . SVG Version: 6.00 Build 0)  -->
<!DOCTYPE svg PUBLIC "-//W3C//DTD SVG 1.1//EN" "http://www.w3.org/Graphics/SVG/1.1/DTD/svg11.dtd">
<svg version="1.1" id="bell-solid" xmlns="http://www.w3.org/2000/svg" xmlns:xlink="http://www.w3.org/1999/xlink" x="0px" y="0px"
	 viewBox="0 0 20 20" enable-background="new 0 0 20 20" xml:space="preserve">
<path d="M7,17h6c0,0,0,3-3,3S7,17,7,17z"/>
<path d="M16,13c-1-1-1-2-1-3V7c0-2.2-1.5-4.1-3.5-4.8V1.5C11.5,0.7,10.8,0,10,0S8.5,0.7,8.5,1.5v0.7C6.5,2.9,5,4.8,5,7
	c0,0,0,2.6,0,3c0,1,0,2-1,3s-3,1.5-3,1.5V16h18v-1.5C19,14.5,17,14,16,13z"/>
</svg>
