<?xml version="1.0" encoding="utf-8"?>
<!-- Generator: Adobe Illustrator 18.1.0, SVG Export Plug-In . SVG Version: 6.00 Build 0)  -->
<!DOCTYPE svg PUBLIC "-//W3C//DTD SVG 1.1//EN" "http://www.w3.org/Graphics/SVG/1.1/DTD/svg11.dtd">
<svg version="1.1" id="レイヤー_1" xmlns="http://www.w3.org/2000/svg" xmlns:xlink="http://www.w3.org/1999/xlink" x="0px"
	 y="0px" viewBox="0 0 256 256" enable-background="new 0 0 256 256" xml:space="preserve">
<path d="M230.4,0H25.6C11.5,0,0,11.5,0,25.6v204.8C0,244.5,11.5,256,25.6,256h204.8c14.1,0,25.6-11.5,25.6-25.6V25.6
	C256,11.5,244.5,0,230.4,0z M156.8,44.3l9.1-9.1l22.6,22.6l22.6-22.6l9.1,9.1l-22.6,22.6l22.6,22.6l-9.1,9.1l-22.6-22.6l-22.6,22.6
	l-9.1-9.1l22.6-22.6L156.8,44.3z M102.4,198.4H32v-12.8h70.4V198.4z M102.4,70.4H73.6v28.8H60.8V70.4H32V57.6h28.8V28.8h12.8v28.8
	h28.8V70.4z M224,217.6h-70.4v-12.8H224V217.6z M224,179.2h-70.4v-12.8H224V179.2z"/>
</svg>
