<?xml version="1.0" encoding="utf-8"?>
<!-- Generator: Adobe Illustrator 18.1.0, SVG Export Plug-In . SVG Version: 6.00 Build 0)  -->
<!DOCTYPE svg PUBLIC "-//W3C//DTD SVG 1.1//EN" "http://www.w3.org/Graphics/SVG/1.1/DTD/svg11.dtd">
<svg version="1.1" id="レイヤー_1" xmlns="http://www.w3.org/2000/svg" xmlns:xlink="http://www.w3.org/1999/xlink" x="0px"
	 y="0px" viewBox="0 0 256 256" enable-background="new 0 0 256 256" xml:space="preserve">
<rect x="153.6" y="166.4" width="70.4" height="12.8"/>
<rect x="153.6" y="204.8" width="70.4" height="12.8"/>
<polygon points="102.4,57.6 73.6,57.6 73.6,28.8 60.8,28.8 60.8,57.6 32,57.6 32,70.4 60.8,70.4 60.8,99.2 73.6,99.2 73.6,70.4 
	102.4,70.4 "/>
<polygon points="220.2,44.3 211.1,35.2 188.5,57.8 165.9,35.2 156.8,44.3 179.4,66.9 156.8,89.5 165.9,98.6 188.5,75.9 211.1,98.6 
	220.2,89.5 197.5,66.9 "/>
<path d="M230.4,0H25.6C11.5,0,0,11.5,0,25.6v204.8C0,244.5,11.5,256,25.6,256h204.8c14.1,0,25.6-11.5,25.6-25.6V25.6
	C256,11.5,244.5,0,230.4,0z M12.8,25.6c0-7.1,5.7-12.8,12.8-12.8h96v108.8H12.8V25.6z M25.6,243.2c-7.1,0-12.8-5.7-12.8-12.8v-96
	h108.8v108.8H25.6z M243.2,230.4c0,7.1-5.7,12.8-12.8,12.8h-96V134.4h108.8V230.4z M243.2,121.6H134.4V12.8h96
	c7.1,0,12.8,5.7,12.8,12.8V121.6z"/>
<rect x="32" y="185.6" width="70.4" height="12.8"/>
</svg>
