<?xml version="1.0" encoding="utf-8"?>
<!DOCTYPE svg PUBLIC "-//W3C//DTD SVG 1.1//EN" "http://www.w3.org/Graphics/SVG/1.1/DTD/svg11.dtd">
<svg version="1.1" id="calender-edge" xmlns="http://www.w3.org/2000/svg" xmlns:xlink="http://www.w3.org/1999/xlink" x="0px"
	 y="0px" viewBox="0 0 20 20" enable-background="new 0 0 20 20" xml:space="preserve">
<rect x="3" y="9" width="2" height="2"/>
<rect x="7" y="9" width="2" height="2"/>
<rect x="11" y="9" width="2" height="2"/>
<rect x="15" y="9" width="2" height="2"/>
<rect x="3" y="12" width="2" height="2"/>
<rect x="7" y="12" width="2" height="2"/>
<rect x="11" y="12" width="2" height="2"/>
<rect x="15" y="12" width="2" height="2"/>
<rect x="3" y="15" width="2" height="2"/>
<rect x="7" y="15" width="2" height="2"/>
<rect x="11" y="15" width="2" height="2"/>
<rect x="15" y="15" width="2" height="2"/>
<path d="M18,2h-2V0h-3v2H7V0H4v2H2C0.9,2,0,2.9,0,4v14c0,1.1,0.9,2,2,2h16c1.1,0,2-0.9,2-2V4C20,2.9,19.1,2,18,2z M14,1h1v2h-1V1z
	 M5,1h1v2H5V1z M19,18c0,0.6-0.4,1-1,1H2c-0.6,0-1-0.4-1-1V7h18V18z M19,6H1V4c0-0.6,0.4-1,1-1h2v1h3V3h6v1h3V3h2c0.6,0,1,0.4,1,1V6
	z"/>
</svg>
