<?xml version="1.0" encoding="utf-8"?>
<!DOCTYPE svg PUBLIC "-//W3C//DTD SVG 1.1//EN" "http://www.w3.org/Graphics/SVG/1.1/DTD/svg11.dtd">
<svg version="1.1" id="calender-solid" xmlns="http://www.w3.org/2000/svg" xmlns:xlink="http://www.w3.org/1999/xlink" x="0px"
	 y="0px" viewBox="0 0 20 20" enable-background="new 0 0 20 20" xml:space="preserve">
<path d="M0,18c0,1.1,0.9,2,2,2h16c1.1,0,2-0.9,2-2V7H0V18z M15,9h2v2h-2V9z M15,12h2v2h-2V12z M15,15h2v2h-2V15z M11,9h2v2h-2V9z
	 M11,12h2v2h-2V12z M11,15h2v2h-2V15z M7,9h2v2H7V9z M7,12h2v2H7V12z M7,15h2v2H7V15z M3,9h2v2H3V9z M3,12h2v2H3V12z M3,15h2v2H3V15
	z"/>
<path d="M18,2h-2V0h-2v2H6V0H4v2H2C0.9,2,0,2.9,0,4v2h20V4C20,2.9,19.1,2,18,2z"/>
</svg>
