<?xml version="1.0" encoding="utf-8"?>
<!DOCTYPE svg PUBLIC "-//W3C//DTD SVG 1.1//EN" "http://www.w3.org/Graphics/SVG/1.1/DTD/svg11.dtd">
<svg version="1.1" id="camera-solid" xmlns="http://www.w3.org/2000/svg" xmlns:xlink="http://www.w3.org/1999/xlink" x="0px"
	 y="0px" viewBox="0 0 256 256" enable-background="new 0 0 256 256" xml:space="preserve">
<g>
	<g>
		<circle cx="128" cy="140.8" r="38.4"/>
		<path d="M230.4,38.4H192l-25.6-25.6H89.6L64,38.4H25.6C11.5,38.4,0,49.9,0,64v153.6c0,14.1,11.5,25.6,25.6,25.6h204.8
			c14.1,0,25.6-11.5,25.6-25.6V64C256,49.9,244.5,38.4,230.4,38.4z M128,204.8c-35.8,0-64-28.2-64-64s28.2-64,64-64s64,28.2,64,64
			S163.8,204.8,128,204.8z"/>
	</g>
</g>
</svg>
