<?xml version="1.0" encoding="utf-8"?>
<!-- Generator: Adobe Illustrator 18.1.0, SVG Export Plug-In . SVG Version: 6.00 Build 0)  -->
<!DOCTYPE svg PUBLIC "-//W3C//DTD SVG 1.1//EN" "http://www.w3.org/Graphics/SVG/1.1/DTD/svg11.dtd">
<svg version="1.1" id="レイヤー_1" xmlns="http://www.w3.org/2000/svg" xmlns:xlink="http://www.w3.org/1999/xlink" x="0px"
	 y="0px" viewBox="0 0 256 256" enable-background="new 0 0 256 256" xml:space="preserve">
<path d="M161.1,25.6l21.9,21.9l3.7,3.7h5.3h38.4c7.1,0,12.8,5.7,12.8,12.8v153.6c0,7.1-5.7,12.8-12.8,12.8H25.6
	c-7.1,0-12.8-5.7-12.8-12.8V64c0-7.1,5.7-12.8,12.8-12.8H64h5.3l3.7-3.7l21.9-21.9H161.1 M166.4,12.8H89.6L64,38.4H25.6
	C11.5,38.4,0,49.9,0,64v153.6c0,14.1,11.5,25.6,25.6,25.6h204.8c14.1,0,25.6-11.5,25.6-25.6V64c0-14.1-11.5-25.6-25.6-25.6H192
	L166.4,12.8L166.4,12.8z"/>
<path d="M128,76.8c-35.8,0-64,28.2-64,64s28.2,64,64,64s64-28.2,64-64S163.8,76.8,128,76.8z M128,179.2c-21.2,0-38.4-17.2-38.4-38.4
	s17.2-38.4,38.4-38.4s38.4,17.2,38.4,38.4S149.2,179.2,128,179.2z"/>
</svg>
