<?xml version="1.0" encoding="utf-8"?>
<!-- Generator: Adobe Illustrator 18.1.0, SVG Export Plug-In . SVG Version: 6.00 Build 0)  -->
<!DOCTYPE svg PUBLIC "-//W3C//DTD SVG 1.1//EN" "http://www.w3.org/Graphics/SVG/1.1/DTD/svg11.dtd">
<svg version="1.1" id="レイヤー_1" xmlns="http://www.w3.org/2000/svg" xmlns:xlink="http://www.w3.org/1999/xlink" x="0px"
	 y="0px" viewBox="0 0 256 256" enable-background="new 0 0 256 256" xml:space="preserve">
<path d="M244.7,20.3c-15-15-39.3-15-54.3,0L69.3,141.4c-10,10-10,26.2,0,36.2s26.2,10,36.2,0l77-77c2.5-2.5,2.5-6.6,0-9.1
	c-2.5-2.5-6.6-2.5-9.1,0l-77,77c-5,5-13.1,5-18.1,0c-5-5-5-13.1,0-18.1L199.5,29.4c10-10,26.2-10,36.2,0c10,10,10,26.2,0,36.2
	L78.4,222.9c-15,15-39.3,15-54.3,0c-15-15-15-39.3,0-54.3L137.2,55.4c2.5-2.5,2.5-6.6,0-9.1c-2.5-2.5-6.6-2.5-9.1,0L15,159.5
	c-20,20-20,52.4,0,72.4c20,20,52.4,20,72.4,0L244.7,74.6C259.8,59.6,259.8,35.3,244.7,20.3z"/>
</svg>
