<?xml version="1.0" encoding="utf-8"?>
<!DOCTYPE svg PUBLIC "-//W3C//DTD SVG 1.1//EN" "http://www.w3.org/Graphics/SVG/1.1/DTD/svg11.dtd">
<svg version="1.1" id="clockwise" xmlns="http://www.w3.org/2000/svg" xmlns:xlink="http://www.w3.org/1999/xlink" x="0px" y="0px"
	 viewBox="0 0 20 20" enable-background="new 0 0 20 20" xml:space="preserve">
<path d="M17,13l3-5h-2.2C16.9,4,13.3,1,9,1c-5,0-9,4-9,9c0,5,4,9,9,9c2.5,0,4.8-1.1,6.5-2.7l-0.5-0.9C13.5,17,11.3,18,9,18
	c-4.4,0-8-3.6-8-8c0-4.4,3.6-8,8-8c3.7,0,6.8,2.6,7.7,6H14L17,13z"/>
</svg>
