<?xml version="1.0" encoding="utf-8"?>
<!-- Generator: Adobe Illustrator 18.1.0, SVG Export Plug-In . SVG Version: 6.00 Build 0)  -->
<!DOCTYPE svg PUBLIC "-//W3C//DTD SVG 1.1//EN" "http://www.w3.org/Graphics/SVG/1.1/DTD/svg11.dtd">
<svg version="1.1" id="clockwise-hands" xmlns="http://www.w3.org/2000/svg" xmlns:xlink="http://www.w3.org/1999/xlink" x="0px"
	 y="0px" viewBox="0 0 256 256" enable-background="new 0 0 256 256" xml:space="preserve">
<path d="M217.6,166.1l38.4-64h-28.6C215.8,50.8,170,12.5,115.2,12.5C51.6,12.5,0,64.1,0,127.7c0,63.6,51.6,115.2,115.2,115.2
	c32.5,0,61.7-13.5,82.7-35.1l-6.9-11.5c-18.7,20.7-45.7,33.8-75.8,33.8c-56.5,0-102.4-45.9-102.4-102.4
	c0-56.5,45.9-102.4,102.4-102.4c47.6,0,87.6,32.7,99,76.8h-35L217.6,166.1z"/>
<path d="M166.2,185.1c-1.6,0-3.3-0.6-4.5-1.9l-52.9-52.9V70.1c0-3.5,2.9-6.4,6.4-6.4c3.5,0,6.4,2.9,6.4,6.4v55l49.1,49.1
	c2.5,2.5,2.5,6.5,0,9C169.5,184.5,167.8,185.1,166.2,185.1z"/>
</svg>
