<?xml version="1.0" encoding="utf-8"?>
<!DOCTYPE svg PUBLIC "-//W3C//DTD SVG 1.1//EN" "http://www.w3.org/Graphics/SVG/1.1/DTD/svg11.dtd">
<svg version="1.1" id="clock" xmlns="http://www.w3.org/2000/svg" xmlns:xlink="http://www.w3.org/1999/xlink" x="0px" y="0px"
	 viewBox="0 0 256 256" enable-background="new 0 0 256 256" xml:space="preserve">
<path d="M128,0C57.3,0,0,57.3,0,128c0,70.7,57.3,128,128,128s128-57.3,128-128C256,57.3,198.7,0,128,0z M191,224.3l-9.5-16.4
	c-1.8-3-5.7-4.1-8.7-2.3c-3,1.8-4.1,5.7-2.3,8.7l9.4,16.4c-13.8,7-29.2,11.3-45.5,12.2V224c0-3.5-2.9-6.4-6.4-6.4s-6.4,2.9-6.4,6.4
	v18.9c-16.3-0.9-31.7-5.2-45.5-12.2l9.4-16.4c1.8-3,0.7-7-2.3-8.7c-3-1.8-7-0.7-8.7,2.3L65,224.3c-13.3-8.7-24.6-20.1-33.3-33.3
	l16.4-9.5c3-1.8,4.1-5.7,2.3-8.7c-1.8-3-5.7-4.1-8.7-2.3l-16.4,9.4c-7-13.8-11.3-29.2-12.2-45.5H32c3.5,0,6.4-2.9,6.4-6.4
	c0-3.5-2.9-6.4-6.4-6.4H13.1c0.9-16.3,5.2-31.7,12.2-45.5l16.4,9.4c3,1.8,7,0.7,8.7-2.3c1.8-3,0.7-7-2.3-8.7L31.7,65
	C40.4,51.7,51.7,40.4,65,31.7l9.5,16.4c1.8,3,5.7,4.1,8.7,2.3c3-1.8,4.1-5.7,2.3-8.7l-9.4-16.4c13.8-7,29.2-11.3,45.5-12.2V32
	c0,3.5,2.9,6.4,6.4,6.4s6.4-2.9,6.4-6.4V13.1c16.3,0.9,31.7,5.2,45.5,12.2l-9.4,16.4c-1.8,3-0.7,7,2.3,8.7c3,1.8,7,0.7,8.7-2.3
	l9.5-16.4c13.3,8.7,24.7,20.2,33.4,33.5l-84,48.3c-3.4-2.9-7.7-4.7-12.4-4.7c-3.9,0-7.6,1.2-10.6,3.2L80.6,84.5
	c-2.8-2.1-6.8-1.5-9,1.3c-2.1,2.8-1.6,6.8,1.3,9l36.8,27.6c-0.6,1.8-1,3.7-1,5.7c0,10.6,8.6,19.2,19.2,19.2s19.2-8.6,19.2-19.2
	c0-1.2-0.1-2.3-0.3-3.5l83.9-48.3c7,13.8,11.2,29.1,12.1,45.3H224c-3.5,0-6.4,2.9-6.4,6.4c0,3.5,2.9,6.4,6.4,6.4h18.9
	c-0.9,16.3-5.2,31.7-12.2,45.5l-16.4-9.4c-3-1.8-7-0.7-8.7,2.3c-1.8,3-0.7,7,2.3,8.7l16.4,9.5C215.6,204.3,204.3,215.6,191,224.3z"
	/>
</svg>
