<?xml version="1.0" encoding="utf-8"?>
<!DOCTYPE svg PUBLIC "-//W3C//DTD SVG 1.1//EN" "http://www.w3.org/Graphics/SVG/1.1/DTD/svg11.dtd">
<svg version="1.1" id="clock-solid" xmlns="http://www.w3.org/2000/svg" xmlns:xlink="http://www.w3.org/1999/xlink" x="0px"
	 y="0px" viewBox="0 0 256 256" enable-background="new 0 0 256 256" xml:space="preserve">
<g>
	<path d="M128,0C57.3,0,0,57.3,0,128c0,70.7,57.3,128,128,128s128-57.3,128-128C256,57.3,198.7,0,128,0z M170.5,41.7l9.4-16.3
		c1.9,1,3.8,1.8,5.7,2.9c1.9,1.1,3.6,2.3,5.4,3.5l-9.4,16.3c-1.8,3-5.7,4.1-8.7,2.3C169.8,48.6,168.7,44.7,170.5,41.7z M121.6,13.1
		c2.1-0.1,4.2-0.3,6.4-0.3s4.3,0.2,6.4,0.3V32c0,3.5-2.9,6.4-6.4,6.4s-6.4-2.9-6.4-6.4V13.1z M70.4,28.2c1.9-1.1,3.8-2,5.7-2.9
		l9.4,16.3c1.8,3,0.7,7-2.3,8.7c-3,1.8-7,0.7-8.7-2.3L65,31.7C66.8,30.5,68.5,29.3,70.4,28.2z M12.8,128c0-2.2,0.2-4.3,0.3-6.4H32
		c3.5,0,6.4,2.9,6.4,6.4s-2.9,6.4-6.4,6.4H13.1C13,132.3,12.8,130.2,12.8,128z M48.1,181.5L31.7,191c-1.2-1.8-2.4-3.5-3.5-5.4
		c-1.1-1.9-2-3.8-2.9-5.7l16.3-9.4c3-1.8,7-0.7,8.7,2.3C52.2,175.8,51.1,179.8,48.1,181.5z M50.4,83.2c-1.8,3-5.7,4.1-8.7,2.3
		l-16.3-9.4c1-1.9,1.8-3.8,2.9-5.7c1.1-1.9,2.3-3.6,3.5-5.4l16.3,9.4C51.1,76.2,52.2,80.2,50.4,83.2z M85.5,214.3l-9.4,16.3
		c-1.9-1-3.8-1.8-5.7-2.9s-3.6-2.3-5.4-3.5l9.4-16.3c1.8-3,5.7-4.1,8.7-2.3C86.2,207.4,87.3,211.3,85.5,214.3z M134.4,242.9
		c-2.1,0.1-4.2,0.3-6.4,0.3s-4.3-0.2-6.4-0.3V224c0-3.5,2.9-6.4,6.4-6.4s6.4,2.9,6.4,6.4V242.9z M128,147.2
		c-10.6,0-19.2-8.6-19.2-19.2c0-2,0.4-3.9,1-5.7L73,94.7c-2.8-2.1-3.4-6.1-1.3-9c2.1-2.8,6.1-3.4,9-1.3l36.7,27.5
		c3-2,6.7-3.2,10.6-3.2c4.8,0,9,1.8,12.4,4.7L224.3,65c1.2,1.8,2.4,3.5,3.5,5.4c1.1,1.9,2,3.8,2.9,5.7l-83.8,48.4
		c0.2,1.1,0.4,2.3,0.4,3.5C147.2,138.6,138.6,147.2,128,147.2z M185.6,227.8c-1.9,1.1-3.8,2-5.7,2.9l-9.4-16.3c-1.8-3-0.7-7,2.3-8.7
		c3-1.8,7-0.7,8.7,2.3l9.4,16.3C189.2,225.5,187.5,226.7,185.6,227.8z M227.8,185.6c-1.1,1.9-2.3,3.6-3.5,5.4l-16.3-9.4
		c-3-1.8-4.1-5.7-2.3-8.7c1.8-3,5.7-4.1,8.7-2.3l16.3,9.4C229.7,181.8,228.8,183.7,227.8,185.6z M224,134.4c-3.5,0-6.4-2.9-6.4-6.4
		s2.9-6.4,6.4-6.4h18.9c0.1,2.1,0.3,4.2,0.3,6.4s-0.2,4.3-0.3,6.4H224z"/>
</g>
</svg>
