<?xml version="1.0" encoding="utf-8"?>
<!DOCTYPE svg PUBLIC "-//W3C//DTD SVG 1.1//EN" "http://www.w3.org/Graphics/SVG/1.1/DTD/svg11.dtd">
<svg version="1.1" id="clockwise-counter-hands" xmlns="http://www.w3.org/2000/svg" xmlns:xlink="http://www.w3.org/1999/xlink"
	 x="0px" y="0px" viewBox="0 0 256 256" enable-background="new 0 0 256 256" xml:space="preserve">
<path d="M140.8,12.5C86,12.5,40.2,50.8,28.6,102.1H0l38.4,64l38.4-64H43.4c11.4-43.2,50.7-75.2,97.4-75.2
	c55.6,0,100.8,45.2,100.8,100.8s-45.2,100.8-100.8,100.8c-29.7,0-56.4-13-74.9-33.6l-7.8,12.9c20.9,21.6,50.2,35.1,82.7,35.1
	c63.6,0,115.2-51.6,115.2-115.2C256,64.1,204.4,12.5,140.8,12.5z"/>
<path d="M191.8,185.1c-1.6,0-3.3-0.6-4.5-1.9l-52.9-52.9V70.1c0-3.5,2.9-6.4,6.4-6.4c3.5,0,6.4,2.9,6.4,6.4v55l49.1,49.1
	c2.5,2.5,2.5,6.5,0,9C195.1,184.5,193.4,185.1,191.8,185.1z"/>
</svg>
