<?xml version="1.0" encoding="utf-8"?>
<!-- Generator: Adobe Illustrator 18.1.0, SVG Export Plug-In . SVG Version: 6.00 Build 0)  -->
<!DOCTYPE svg PUBLIC "-//W3C//DTD SVG 1.1//EN" "http://www.w3.org/Graphics/SVG/1.1/DTD/svg11.dtd">
<svg version="1.1" id="close-circle-edge" xmlns="http://www.w3.org/2000/svg" xmlns:xlink="http://www.w3.org/1999/xlink" x="0px"
	 y="0px" viewBox="0 0 20 20" enable-background="new 0 0 20 20" xml:space="preserve">
<polygon points="14.5,6.5 13.5,5.5 10,9 6.5,5.5 5.5,6.5 9,10 5.5,13.5 6.5,14.5 10,11 13.5,14.5 14.5,13.5 11,10 "/>
<rect x="9.3" y="5.1" transform="matrix(0.7071 0.7071 -0.7071 0.7071 10 -4.1421)" display="none" width="1.4" height="9.9"/>
<rect x="9.3" y="5.1" transform="matrix(0.7071 -0.7071 0.7071 0.7071 -4.1421 10)" display="none" width="1.4" height="9.9"/>
<path d="M10,1c5,0,9,4,9,9s-4,9-9,9s-9-4-9-9S5,1,10,1 M10,0C4.5,0,0,4.5,0,10s4.5,10,10,10s10-4.5,10-10S15.5,0,10,0L10,0z"/>
</svg>
