<?xml version="1.0" encoding="utf-8"?>
<!DOCTYPE svg PUBLIC "-//W3C//DTD SVG 1.1//EN" "http://www.w3.org/Graphics/SVG/1.1/DTD/svg11.dtd">
<svg version="1.1" id="column" xmlns="http://www.w3.org/2000/svg" xmlns:xlink="http://www.w3.org/1999/xlink" x="0px" y="0px"
	 viewBox="0 0 20 20" enable-background="new 0 0 20 20" xml:space="preserve">
<path d="M5.5,18h-4C1.2,18,1,17.8,1,17.5v-15C1,2.2,1.2,2,1.5,2h4C5.8,2,6,2.2,6,2.5v15C6,17.8,5.8,18,5.5,18z"/>
<path d="M12,18H8c-0.3,0-0.5-0.2-0.5-0.5v-15C7.5,2.2,7.7,2,8,2h4c0.3,0,0.5,0.2,0.5,0.5v15C12.5,17.8,12.3,18,12,18z"/>
<path d="M18.5,18h-4c-0.3,0-0.5-0.2-0.5-0.5v-15C14,2.2,14.2,2,14.5,2h4C18.8,2,19,2.2,19,2.5v15C19,17.8,18.8,18,18.5,18z"/>
</svg>
