<?xml version="1.0" encoding="utf-8"?>
<!-- Generator: Adobe Illustrator 18.1.0, SVG Export Plug-In . SVG Version: 6.00 Build 0)  -->
<!DOCTYPE svg PUBLIC "-//W3C//DTD SVG 1.1//EN" "http://www.w3.org/Graphics/SVG/1.1/DTD/svg11.dtd">
<svg version="1.1" id="レイヤー_1" xmlns="http://www.w3.org/2000/svg" xmlns:xlink="http://www.w3.org/1999/xlink" x="0px"
	 y="0px" viewBox="0 0 256 256" enable-background="new 0 0 256 256" xml:space="preserve">
<path d="M128,12.8c63.5,0,115.2,51.7,115.2,115.2S191.5,243.2,128,243.2S12.8,191.5,12.8,128S64.5,12.8,128,12.8 M128,0
	C57.3,0,0,57.3,0,128s57.3,128,128,128s128-57.3,128-128S198.7,0,128,0L128,0z"/>
<g>
	<path d="M102.4,102.4L64,192l89.6-38.4L192,64L102.4,102.4z M88.4,167.6l23.8-55.5l31.7,31.7L88.4,167.6z"/>
</g>
</svg>
