<?xml version="1.0" encoding="utf-8"?>
<!DOCTYPE svg PUBLIC "-//W3C//DTD SVG 1.1//EN" "http://www.w3.org/Graphics/SVG/1.1/DTD/svg11.dtd">
<svg version="1.1" id="config-solid" xmlns="http://www.w3.org/2000/svg" xmlns:xlink="http://www.w3.org/1999/xlink" x="0px"
	 y="0px" viewBox="0 0 256 256" enable-background="new 0 0 256 256" xml:space="preserve">
<path d="M256,147.2v-38.4l-35.3-5.5c-2.2-8.3-5.5-16.1-9.7-23.3l21.1-28.9l-27.2-27.2L176.1,45c-7.2-4.2-15.1-7.5-23.3-9.7L147.2,0
	h-38.4l-5.5,35.3C95,37.5,87.2,40.8,79.9,45L51.1,23.9L23.9,51.1L45,79.9c-4.2,7.2-7.5,15.1-9.7,23.3L0,108.8v38.4l35.3,5.5
	c2.2,8.3,5.5,16.1,9.7,23.3l-21.1,28.9l27.2,27.2L79.9,211c7.2,4.2,15.1,7.4,23.3,9.7l5.5,35.3h38.4l5.5-35.3
	c8.3-2.2,16.1-5.5,23.3-9.7l28.9,21.1l27.2-27.2L211,176.1c4.2-7.2,7.4-15.1,9.7-23.3L256,147.2z M128,166.4
	c-21.2,0-38.4-17.2-38.4-38.4s17.2-38.4,38.4-38.4s38.4,17.2,38.4,38.4S149.2,166.4,128,166.4z"/>
</svg>
