<?xml version="1.0" encoding="utf-8"?>
<!DOCTYPE svg PUBLIC "-//W3C//DTD SVG 1.1//EN" "http://www.w3.org/Graphics/SVG/1.1/DTD/svg11.dtd">
<svg version="1.1" id="config-edge" xmlns="http://www.w3.org/2000/svg" xmlns:xlink="http://www.w3.org/1999/xlink" x="0px"
	 y="0px" viewBox="0 0 256 256" enable-background="new 0 0 256 256" xml:space="preserve">
<path d="M128,172.8c-24.7,0-44.8-20.1-44.8-44.8s20.1-44.8,44.8-44.8s44.8,20.1,44.8,44.8S152.7,172.8,128,172.8z M128,96
	c-17.6,0-32,14.4-32,32s14.4,32,32,32s32-14.4,32-32S145.6,96,128,96z"/>
<path d="M152.6,256h-49.2l-6.2-37.1c-4-1.4-8-3-11.7-4.8l-30.6,21.9l-34.8-34.8l21.8-30.6c-1.8-3.7-3.4-7.7-4.8-11.7L0,152.6v-49.2
	l37.1-6.2c1.4-4,3-8,4.8-11.7L20.1,54.9l34.8-34.8l30.6,21.8c3.7-1.8,7.7-3.4,11.7-4.8L103.4,0h49.2l6.2,37.1c4,1.4,8,3,11.7,4.8
	l30.6-21.8l34.8,34.8l-21.8,30.6c1.8,3.7,3.4,7.7,4.8,11.7l37.1,6.2v49.2l-37.1,6.2c-1.4,4-3,8-4.8,11.7l21.8,30.6l-34.8,34.8
	l-30.6-21.9c-3.7,1.8-7.7,3.4-11.7,4.8L152.6,256z M114.2,243.2h27.5l5.7-34.3l3.9-1.1c5.9-1.7,11.5-4,16.6-6.8l3.5-1.9l28.2,20.2
	l19.5-19.5L199,171.5l1.9-3.5c2.8-5.1,5.1-10.7,6.8-16.6l1.1-3.9l34.3-5.7v-27.5l-34.3-5.7l-1.1-3.9c-1.7-5.9-4-11.5-6.8-16.6
	l-1.9-3.5l20.2-28.2l-19.5-19.5L171.5,57L168,55c-5.1-2.8-10.7-5.1-16.6-6.8l-3.9-1.1l-5.7-34.3h-27.5l-5.7,34.3l-3.9,1.1
	c-5.9,1.7-11.5,4-16.6,6.8L84.5,57L56.3,36.8L36.8,56.3L57,84.5L55,88c-2.8,5.1-5.1,10.7-6.8,16.6l-1.1,3.9l-34.3,5.7v27.5l34.3,5.7
	l1.1,3.9c1.7,5.9,4,11.5,6.8,16.6l1.9,3.5l-20.2,28.2l19.5,19.5L84.5,199L88,201c5.1,2.8,10.7,5.1,16.6,6.8l3.9,1.1L114.2,243.2z"/>
</svg>
