<?xml version="1.0" encoding="utf-8"?>
<!DOCTYPE svg PUBLIC "-//W3C//DTD SVG 1.1//EN" "http://www.w3.org/Graphics/SVG/1.1/DTD/svg11.dtd">
<svg version="1.1" id="console-solid" xmlns="http://www.w3.org/2000/svg" xmlns:xlink="http://www.w3.org/1999/xlink" x="0px"
	 y="0px" viewBox="0 0 256 256" enable-background="new 0 0 256 256" xml:space="preserve">
<path d="M230.4,12.8H25.6C11.5,12.8,0,24.3,0,38.4v179.2c0,14.1,11.5,25.6,25.6,25.6h204.8c14.1,0,25.6-11.5,25.6-25.6V38.4
	C256,24.3,244.5,12.8,230.4,12.8z M83.2,38.4c3.5,0,6.4,2.9,6.4,6.4s-2.9,6.4-6.4,6.4s-6.4-2.9-6.4-6.4
	C76.8,41.3,79.7,38.4,83.2,38.4z M57.6,38.4c3.5,0,6.4,2.9,6.4,6.4s-2.9,6.4-6.4,6.4s-6.4-2.9-6.4-6.4
	C51.2,41.3,54.1,38.4,57.6,38.4z M32,51.2c-3.5,0-6.4-2.9-6.4-6.4s2.9-6.4,6.4-6.4s6.4,2.9,6.4,6.4S35.6,51.2,32,51.2z M64,192
	l-12.8-12.8l38.4-38.4l-38.4-38.4L64,89.6l51.2,51.2L64,192z M204.8,192H128v-19.2h76.8V192z"/>
</svg>
