<?xml version="1.0" encoding="utf-8"?>
<!DOCTYPE svg PUBLIC "-//W3C//DTD SVG 1.1//EN" "http://www.w3.org/Graphics/SVG/1.1/DTD/svg11.dtd">
<svg version="1.1" id="console-edge" xmlns="http://www.w3.org/2000/svg" xmlns:xlink="http://www.w3.org/1999/xlink" x="0px"
	 y="0px" viewBox="0 0 256 256" enable-background="new 0 0 256 256" xml:space="preserve">
<polygon points="51.2,115.2 64,102.4 115.2,153.6 64,204.8 51.2,192 89.6,153.6 "/>
<rect x="128" y="185.6" width="76.8" height="19.2"/>
<circle cx="32" cy="44.8" r="6.4"/>
<circle cx="57.6" cy="44.8" r="6.4"/>
<circle cx="83.2" cy="44.8" r="6.4"/>
<path d="M230.4,12.8H25.6C11.5,12.8,0,24.3,0,38.4v179.2c0,14.1,11.5,25.6,25.6,25.6h204.8c14.1,0,25.6-11.5,25.6-25.6V38.4
	C256,24.3,244.5,12.8,230.4,12.8z M12.8,38.4c0-7.1,5.7-12.8,12.8-12.8h204.8c7.1,0,12.8,5.7,12.8,12.8V64H12.8V38.4z M243.2,217.6
	c0,7.1-5.7,12.8-12.8,12.8H25.6c-7.1,0-12.8-5.7-12.8-12.8V76.8h230.4V217.6z"/>
</svg>
