<?xml version="1.0" encoding="utf-8"?>
<!-- Generator: Adobe Illustrator 18.1.0, SVG Export Plug-In . SVG Version: 6.00 Build 0)  -->
<!DOCTYPE svg PUBLIC "-//W3C//DTD SVG 1.1//EN" "http://www.w3.org/Graphics/SVG/1.1/DTD/svg11.dtd">
<svg version="1.1" id="dashboard-solid" xmlns="http://www.w3.org/2000/svg" xmlns:xlink="http://www.w3.org/1999/xlink" x="0px"
	 y="0px" viewBox="0 0 256 256" enable-background="new 0 0 256 256" xml:space="preserve">
<g>
	<path d="M128,0C57.3,0,0,57.3,0,128c0,70.7,57.3,128,128,128s128-57.3,128-128C256,57.3,198.7,0,128,0z M164.1,52.7l6.4-11.1
		c1.8-3,5.7-4.1,8.7-2.3c3,1.8,4.1,5.7,2.3,8.7l-6.4,11.1c-1.8,3-5.7,4.1-8.7,2.3C163.4,59.7,162.3,55.8,164.1,52.7z M121.6,32
		c0-3.5,2.9-6.4,6.4-6.4s6.4,2.9,6.4,6.4v12.8c0,3.5-2.9,6.4-6.4,6.4s-6.4-2.9-6.4-6.4V32z M128,115.2c5.9,0,11.3,2.1,15.7,5.5
		l63.6-49c2.8-2.2,6.8-1.6,9,1.2c2.2,2.8,1.6,6.8-1.2,9l-63.6,48.9c1.3,3.1,2.1,6.5,2.1,10c0,14.1-11.5,25.6-25.6,25.6
		s-25.6-11.5-25.6-25.6C102.4,126.7,113.9,115.2,128,115.2z M76.8,39.3c3-1.8,7-0.7,8.7,2.3l6.4,11.1c1.8,3,0.7,7-2.3,8.7
		c-3,1.8-7,0.7-8.7-2.3l-6.4-11.1C72.7,45,73.8,41.1,76.8,39.3z M32,134.4c-3.5,0-6.4-2.9-6.4-6.4c0-3.5,2.9-6.4,6.4-6.4h12.8
		c3.5,0,6.4,2.9,6.4,6.4c0,3.5-2.9,6.4-6.4,6.4H32z M59.1,175.1l-11.1,6.4c-3,1.8-7,0.7-8.7-2.3c-1.8-3-0.7-7,2.3-8.7l11.1-6.4
		c3-1.8,7-0.7,8.7,2.3C63.2,169.4,62.2,173.4,59.1,175.1z M61.5,89.6c-1.8,3-5.7,4.1-8.7,2.3l-11.1-6.4c-3-1.8-4.1-5.7-2.3-8.7
		c1.8-3,5.7-4.1,8.7-2.3l11.1,6.4C62.2,82.6,63.2,86.6,61.5,89.6z M128,243.2c-23.1,0-44.6-6.9-62.6-18.6
		C79.3,204.9,102.1,192,128,192s48.7,12.9,62.6,32.6C172.6,236.3,151.1,243.2,128,243.2z M216.7,179.2c-1.8,3-5.7,4.1-8.7,2.3
		l-11.1-6.4c-3-1.8-4.1-5.7-2.3-8.7c1.8-3,5.7-4.1,8.7-2.3l11.1,6.4C217.4,172.2,218.4,176.2,216.7,179.2z M224,134.4h-12.8
		c-3.5,0-6.4-2.9-6.4-6.4c0-3.5,2.9-6.4,6.4-6.4H224c3.5,0,6.4,2.9,6.4,6.4C230.4,131.5,227.5,134.4,224,134.4z"/>
</g>
</svg>
