<?xml version="1.0" encoding="utf-8"?>
<!DOCTYPE svg PUBLIC "-//W3C//DTD SVG 1.1//EN" "http://www.w3.org/Graphics/SVG/1.1/DTD/svg11.dtd">
<svg version="1.1" id="dashboard-edge" xmlns="http://www.w3.org/2000/svg" xmlns:xlink="http://www.w3.org/1999/xlink" x="0px"
	 y="0px" viewBox="0 0 256 256" enable-background="new 0 0 256 256" xml:space="preserve">
<path d="M134.4,44.8c0,3.5-2.9,6.4-6.4,6.4c-3.5,0-6.4-2.9-6.4-6.4V32c0-3.5,2.9-6.4,6.4-6.4c3.5,0,6.4,2.9,6.4,6.4V44.8z"/>
<path d="M91.9,52.7c1.8,3,0.7,7-2.3,8.7c-3,1.8-7,0.7-8.7-2.3l-6.4-11.1c-1.8-3-0.7-7,2.3-8.7c3-1.8,7-0.7,8.7,2.3L91.9,52.7z"/>
<path d="M59.1,80.9c3,1.8,4.1,5.7,2.3,8.7c-1.8,3-5.7,4.1-8.7,2.3l-11.1-6.4c-3-1.8-4.1-5.7-2.3-8.7c1.8-3,5.7-4.1,8.7-2.3
	L59.1,80.9z"/>
<path d="M214.3,170.5c3,1.8,4.1,5.7,2.3,8.7c-1.8,3-5.7,4.1-8.7,2.3l-11.1-6.4c-3-1.8-4.1-5.7-2.3-8.7c1.8-3,5.7-4.1,8.7-2.3
	L214.3,170.5z"/>
<path d="M44.8,121.6c3.5,0,6.4,2.9,6.4,6.4c0,3.5-2.9,6.4-6.4,6.4H32c-3.5,0-6.4-2.9-6.4-6.4c0-3.5,2.9-6.4,6.4-6.4H44.8z"/>
<path d="M224,121.6c3.5,0,6.4,2.9,6.4,6.4c0,3.5-2.9,6.4-6.4,6.4h-12.8c-3.5,0-6.4-2.9-6.4-6.4c0-3.5,2.9-6.4,6.4-6.4H224z"/>
<path d="M52.7,164.1c3-1.8,7-0.7,8.7,2.3c1.8,3,0.7,7-2.3,8.7l-11.1,6.4c-3,1.8-7,0.7-8.7-2.3c-1.8-3-0.7-7,2.3-8.7L52.7,164.1z"/>
<path d="M170.5,41.7c1.8-3,5.7-4.1,8.7-2.3c3,1.8,4.1,5.7,2.3,8.7l-6.4,11.1c-1.8,3-5.7,4.1-8.7,2.3c-3-1.8-4.1-5.7-2.3-8.7
	L170.5,41.7z"/>
<path d="M216.3,72.9c-2.2-2.8-6.2-3.3-9-1.2l-63.6,49c-4.3-3.4-9.7-5.5-15.7-5.5c-14.1,0-25.6,11.5-25.6,25.6
	c0,14.1,11.5,25.6,25.6,25.6s25.6-11.5,25.6-25.6c0-3.6-0.7-7-2.1-10l63.6-48.9C217.9,79.7,218.4,75.7,216.3,72.9z"/>
<path d="M128,0C57.3,0,0,57.3,0,128c0,70.7,57.3,128,128,128s128-57.3,128-128C256,57.3,198.7,0,128,0z M190.5,224.6
	C176.6,204.9,153.9,192,128,192s-48.6,12.9-62.5,32.6C33.8,204,12.8,168.5,12.8,128C12.8,64.5,64.5,12.8,128,12.8
	S243.2,64.5,243.2,128C243.2,168.5,222.2,204,190.5,224.6z"/>
</svg>
