<?xml version="1.0" encoding="utf-8"?>
<!-- Generator: Adobe Illustrator 18.1.0, SVG Export Plug-In . SVG Version: 6.00 Build 0)  -->
<!DOCTYPE svg PUBLIC "-//W3C//DTD SVG 1.1//EN" "http://www.w3.org/Graphics/SVG/1.1/DTD/svg11.dtd">
<svg version="1.1" id="stop" xmlns="http://www.w3.org/2000/svg" xmlns:xlink="http://www.w3.org/1999/xlink" x="0px" y="0px"
	 viewBox="0 0 20 20" enable-background="new 0 0 20 20" xml:space="preserve">
<path d="M10,0C4.5,0,0,4.5,0,10c0,5.5,4.5,10,10,10s10-4.5,10-10C20,4.5,15.5,0,10,0z M10,1c2.2,0,4.3,0.8,5.8,2.2L3.2,15.8
	C1.8,14.3,1,12.2,1,10C1,5,5,1,10,1z M10,19c-2.2,0-4.3-0.8-5.8-2.2L16.8,4.2C18.2,5.7,19,7.8,19,10C19,15,15,19,10,19z"/>
</svg>
