<?xml version="1.0" encoding="utf-8"?>
<!DOCTYPE svg PUBLIC "-//W3C//DTD SVG 1.1//EN" "http://www.w3.org/Graphics/SVG/1.1/DTD/svg11.dtd">
<svg version="1.1" id="email-edge" xmlns="http://www.w3.org/2000/svg" xmlns:xlink="http://www.w3.org/1999/xlink" x="0px"
	 y="0px" viewBox="0 0 256 256" enable-background="new 0 0 256 256" xml:space="preserve">
<path d="M230.4,25.5H25.6C11.5,25.5,0,37,0,51.1v153.6c0,14.1,11.5,25.6,25.6,25.6h204.8c14.1,0,25.6-11.5,25.6-25.6V51.1
	C256,37,244.5,25.5,230.4,25.5z M243.2,204.7c0,7.1-5.7,12.8-12.8,12.8H25.6c-7.1,0-12.8-5.7-12.8-12.8V51.1
	c0-7.1,5.7-12.8,12.8-12.8h204.8c7.1,0,12.8,5.7,12.8,12.8V204.7z"/>
<polygon points="217.6,85.2 128,139.4 38.4,85.2 38.4,99.5 128,153.5 217.6,99.5 "/>
</svg>
