<?xml version="1.0" encoding="utf-8"?>
<!DOCTYPE svg PUBLIC "-//W3C//DTD SVG 1.1//EN" "http://www.w3.org/Graphics/SVG/1.1/DTD/svg11.dtd">
<svg version="1.1" id="eye" xmlns="http://www.w3.org/2000/svg" xmlns:xlink="http://www.w3.org/1999/xlink" x="0px"
	 y="0px" viewBox="0 0 256 256" enable-background="new 0 0 256 256" xml:space="preserve">
<g>
	<g>
		<path d="M128,51.2C57.3,51.2,0,128,0,128s57.3,76.8,128,76.8S256,128,256,128S198.7,51.2,128,51.2z M128,179.2
			c-28.3,0-51.2-22.9-51.2-51.2c0-28.3,22.9-51.2,51.2-51.2s51.2,22.9,51.2,51.2C179.2,156.3,156.3,179.2,128,179.2z"/>
	</g>
	<g>
		<path d="M128,102.4c-14.1,0-25.6,11.5-25.6,25.6c0,14.1,11.5,25.6,25.6,25.6s25.6-11.5,25.6-25.6
			C153.6,113.9,142.1,102.4,128,102.4z"/>
	</g>
</g>
</svg>
