<?xml version="1.0" encoding="utf-8"?>
<!DOCTYPE svg PUBLIC "-//W3C//DTD SVG 1.1//EN" "http://www.w3.org/Graphics/SVG/1.1/DTD/svg11.dtd">
<svg version="1.1" id="file-audio-solid" xmlns="http://www.w3.org/2000/svg" xmlns:xlink="http://www.w3.org/1999/xlink" x="0px"
	 y="0px" viewBox="0 0 256 256" enable-background="new 0 0 256 256" xml:space="preserve">
<path d="M230.4,76.8L153.6,0H51.2C37.1,0,25.6,11.5,25.6,25.6v204.8c0,14.1,11.5,25.6,25.6,25.6h153.6c14.1,0,25.6-11.5,25.6-25.6
	L230.4,76.8L230.4,76.8z M163.2,153.6l-3.2-3.2c32-22.4,6.4-48-19.2-60.8v89.6h0c-0.2,10.6-10.7,21.4-25.9,25.4
	c-17.2,4.5-34.4-0.7-37.6-12.6s8.7-25.9,25.9-30.5c9.1-2.4,17.9-1.8,24.8,1V64h12.8C153.6,89.6,217.6,115.2,163.2,153.6z"/>
</svg>
