<?xml version="1.0" encoding="utf-8"?>
<!-- Generator: Adobe Illustrator 18.1.0, SVG Export Plug-In . SVG Version: 6.00 Build 0)  -->
<!DOCTYPE svg PUBLIC "-//W3C//DTD SVG 1.1//EN" "http://www.w3.org/Graphics/SVG/1.1/DTD/svg11.dtd">
<svg version="1.1" id="レイヤー_1" xmlns="http://www.w3.org/2000/svg" xmlns:xlink="http://www.w3.org/1999/xlink" x="0px"
	 y="0px" viewBox="0 0 256 256" enable-background="new 0 0 256 256" xml:space="preserve">
<path d="M148.3,12.8l69.3,69.3v148.3c0,7.1-5.7,12.8-12.8,12.8H51.2c-7.1,0-12.8-5.7-12.8-12.8V25.6c0-7.1,5.7-12.8,12.8-12.8H148.3
	 M153.6,0H51.2C37.1,0,25.6,11.5,25.6,25.6v204.8c0,14.1,11.5,25.6,25.6,25.6h153.6c14.1,0,25.6-11.5,25.6-25.6V76.8h0L153.6,0
	L153.6,0z"/>
<path d="M140.8,64H128v98.5c-3.9-1.6-8.5-2.5-13.4-2.5c-3.7,0-7.5,0.5-11.4,1.5C86,166.1,74.1,180.1,77.3,192
	c2.4,9,12.9,14.2,25.3,14.2c4,0,8.1-0.5,12.3-1.6c15.1-4,25.7-14.7,25.9-25.4h0V89.6c25.6,12.8,51.2,38.4,19.2,60.8l3.2,3.2
	C217.6,115.2,153.6,89.6,140.8,64L140.8,64z"/>
</svg>
