<?xml version="1.0" encoding="utf-8"?>
<!-- Generator: Adobe Illustrator 18.1.0, SVG Export Plug-In . SVG Version: 6.00 Build 0)  -->
<!DOCTYPE svg PUBLIC "-//W3C//DTD SVG 1.1//EN" "http://www.w3.org/Graphics/SVG/1.1/DTD/svg11.dtd">
<svg version="1.1" id="レイヤー_1" xmlns="http://www.w3.org/2000/svg" xmlns:xlink="http://www.w3.org/1999/xlink" x="0px"
	 y="0px" viewBox="0 0 256 256" enable-background="new 0 0 256 256" xml:space="preserve">
<path d="M148.3,12.8l69.3,69.3v148.3c0,7.1-5.7,12.8-12.8,12.8H51.2c-7.1,0-12.8-5.7-12.8-12.8V25.6c0-7.1,5.7-12.8,12.8-12.8H148.3
	 M153.6,0H51.2C37.1,0,25.6,11.5,25.6,25.6v204.8c0,14.1,11.5,25.6,25.6,25.6h153.6c14.1,0,25.6-11.5,25.6-25.6V76.8L153.6,0
	L153.6,0z"/>
<polygon points="64,179.2 64,102.4 128,140.8 "/>
<rect x="140.8" y="102.4" width="12.8" height="76.8"/>
<rect x="179.2" y="102.4" width="12.8" height="76.8"/>
</svg>
