<?xml version="1.0" encoding="utf-8"?>
<!-- Generator: Adobe Illustrator 18.1.0, SVG Export Plug-In . SVG Version: 6.00 Build 0)  -->
<!DOCTYPE svg PUBLIC "-//W3C//DTD SVG 1.1//EN" "http://www.w3.org/Graphics/SVG/1.1/DTD/svg11.dtd">
<svg version="1.1" id="レイヤー_1" xmlns="http://www.w3.org/2000/svg" xmlns:xlink="http://www.w3.org/1999/xlink" x="0px"
	 y="0px" viewBox="0 0 256 256" enable-background="new 0 0 256 256" xml:space="preserve">
<path d="M166.4,0H89.6C75.5,0,64,11.5,64,25.6V192c0,14.1,11.5,25.6,25.6,25.6h115.2c14.1,0,25.6-11.5,25.6-25.6V64L166.4,0z
	 M166.4,64V17.9L212.5,64H166.4z"/>
<path d="M64,243.2c-14.1,0-25.6-11.5-25.6-25.6V55c-7.7,3.8-12.8,12.8-12.8,21.8v140.8c0,20.5,16.6,38.4,38.4,38.4h106.2
	c9,0,17.9-5.1,21.8-12.8H64z"/>
</svg>
