<?xml version="1.0" encoding="utf-8"?>
<!-- Generator: Adobe Illustrator 18.1.0, SVG Export Plug-In . SVG Version: 6.00 Build 0)  -->
<!DOCTYPE svg PUBLIC "-//W3C//DTD SVG 1.1//EN" "http://www.w3.org/Graphics/SVG/1.1/DTD/svg11.dtd">
<svg version="1.1" id="file-text-edge" xmlns="http://www.w3.org/2000/svg" xmlns:xlink="http://www.w3.org/1999/xlink" x="0px"
	 y="0px" viewBox="0 0 20 20" enable-background="new 0 0 20 20" xml:space="preserve">
<path d="M18,6l-6-6H4C2.9,0,2,0.9,2,2v16c0,1.1,0.9,2,2,2h12c1.1,0,2-0.9,2-2L18,6L18,6z M12,1.4L16.6,6H12V1.4z M17,18
	c0,0.6-0.4,1-1,1H4c-0.6,0-1-0.4-1-1V2c0-0.6,0.4-1,1-1h7v6h6V18z"/>
<rect x="5" y="9" width="10" height="1"/>
<rect x="5" y="12" width="10" height="1"/>
<rect x="5" y="15" width="6" height="1"/>
</svg>
