<?xml version="1.0" encoding="utf-8"?>
<!DOCTYPE svg PUBLIC "-//W3C//DTD SVG 1.1//EN" "http://www.w3.org/Graphics/SVG/1.1/DTD/svg11.dtd">
<svg version="1.1" id="file-copy-edge" xmlns="http://www.w3.org/2000/svg" xmlns:xlink="http://www.w3.org/1999/xlink" x="0px"
	 y="0px" viewBox="0 0 20 20" enable-background="new 0 0 20 20" xml:space="preserve">
<path d="M13,0H7C5.9,0,5,0.9,5,2v13c0,1.1,0.9,2,2,2h9c1.1,0,2-0.9,2-2V5L13,0z M16.6,5H13V1.4L16.6,5z M17,15c0,0.6-0.4,1-1,1H7
	c-0.6,0-1-0.4-1-1V2c0-0.6,0.4-1,1-1h5v5h5V15z"/>
<path d="M5,19c-1.1,0-2-0.9-2-2V4.3C2.4,4.6,2,5.3,2,6v11c0,1.6,1.3,3,3,3h8.3c0.7,0,1.4-0.4,1.7-1H5z"/>
</svg>
