<?xml version="1.0" encoding="utf-8"?>
<!-- Generator: Adobe Illustrator 18.1.0, SVG Export Plug-In . SVG Version: 6.00 Build 0)  -->
<!DOCTYPE svg PUBLIC "-//W3C//DTD SVG 1.1//EN" "http://www.w3.org/Graphics/SVG/1.1/DTD/svg11.dtd">
<svg version="1.1" id="first_x2010_aid-edge" xmlns="http://www.w3.org/2000/svg" xmlns:xlink="http://www.w3.org/1999/xlink"
	 x="0px" y="0px" viewBox="0 0 20 20" enable-background="new 0 0 20 20" xml:space="preserve">
<path d="M18,4h-2V3c0-1.1-0.9-2-2-2H6C4.9,1,4,1.9,4,3v1H2C0.9,4,0,4.9,0,6v7h1v4c0,1.1,0.9,2,2,2h14c1.1,0,2-0.9,2-2c0,0,0,0,0,0
	v-4h1V6c0,0,0,0,0,0C20,4.9,19.1,4,18,4z M6,3h8v1H6V3z M19,12h-1v1l0,4c0,0.6-0.4,1-1,1H3c-0.6,0-1-0.4-1-1v-5H1V6c0-0.6,0.4-1,1-1
	h16c0.3,0,0.5,0.1,0.7,0.3C18.9,5.5,19,5.7,19,6V12z"/>
<polygon points="11,8 9,8 9,11 6,11 6,13 9,13 9,16 11,16 11,13 14,13 14,11 11,11 "/>
</svg>
