<?xml version="1.0" encoding="utf-8"?>
<!DOCTYPE svg PUBLIC "-//W3C//DTD SVG 1.1//EN" "http://www.w3.org/Graphics/SVG/1.1/DTD/svg11.dtd">
<svg version="1.1" id="flag-edge" xmlns="http://www.w3.org/2000/svg" xmlns:xlink="http://www.w3.org/1999/xlink" x="0px"
	 y="0px" viewBox="0 0 256 256" enable-background="new 0 0 256 256" xml:space="preserve">
<path d="M166.4,38.4c-38.4,0-51.2-25.6-89.6-25.6s-64,12.8-64,12.8v217.6h12.8v-94.5c11.2-3.6,28.9-7.9,51.2-7.9
	c38.4,0,51.2,25.6,89.6,25.6s76.8-12.8,76.8-12.8v-128C243.2,25.6,204.8,38.4,166.4,38.4z M230.4,144c-13,3.6-38.7,9.6-64,9.6
	c-16.2,0-26.8-5.3-39.1-11.4C114.1,135.5,99,128,76.8,128c-21.3,0-39,3.7-51.2,7.3V34.2c9.4-3.4,27.6-8.6,51.2-8.6
	c16.2,0,26.8,5.3,39.1,11.4c13.3,6.6,28.3,14.2,50.5,14.2c24.4,0,48.5-4.8,64-8.7V144z"/>
</svg>
