<?xml version="1.0" encoding="utf-8"?>
<!DOCTYPE svg PUBLIC "-//W3C//DTD SVG 1.1//EN" "http://www.w3.org/Graphics/SVG/1.1/DTD/svg11.dtd">
<svg version="1.1" id="folder-edge" xmlns="http://www.w3.org/2000/svg" xmlns:xlink="http://www.w3.org/1999/xlink" x="0px"
	 y="0px" viewBox="0 0 20 20" enable-background="new 0 0 20 20" xml:space="preserve">
<path d="M18,3h-8L8,1H2C0.9,1,0,1.9,0,3v14c0,1.1,0.9,2,2,2h16c1.1,0,2-0.9,2-2V5C20,3.9,19.1,3,18,3z M1,3c0-0.6,0.4-1,1-1h5.6l2,2
	H18c0.6,0,1,0.4,1,1v1H1V3z M19,17c0,0.6-0.4,1-1,1H2c-0.6,0-1-0.4-1-1V7h18V17z"/>
</svg>
