<?xml version="1.0" encoding="utf-8"?>
<!-- Generator: Adobe Illustrator 18.1.0, SVG Export Plug-In . SVG Version: 6.00 Build 0)  -->
<!DOCTYPE svg PUBLIC "-//W3C//DTD SVG 1.1//EN" "http://www.w3.org/Graphics/SVG/1.1/DTD/svg11.dtd">
<svg version="1.1" id="レイヤー_1" xmlns="http://www.w3.org/2000/svg" xmlns:xlink="http://www.w3.org/1999/xlink" x="0px"
	 y="0px" viewBox="0 0 256 256" enable-background="new 0 0 256 256" xml:space="preserve">
<g>
	<path fill-rule="evenodd" clip-rule="evenodd" d="M128,0C57.3,0,0,57.3,0,128c0,70.7,57.3,128,128,128s128-57.3,128-128
		C256,57.3,198.7,0,128,0z M43.6,49.9L41.4,53l1.2,3.6l-8.8,8.2l-5.6,5.9C32.5,63.2,37.7,56.2,43.6,49.9z M12.8,128
		c0-19.6,5-38.1,13.7-54.3l4.7-5.1l8.6-7.6l3.6-1.2l2.4-3l2.6-3.2l4.4-2.2l3-2.2l5.2,2.6l-1.8,16.4l4.6,13.4l-6.2,14.9l2.6,16.3
		l4.5,2.7l1,6.7L68,126l-1.4,2.6l3.8,2.4l-0.6,1.9l3.8,4.7l0.8-1.4l-1.8-2l-0.6-3.8l-4-7.8v-4l2,1.6l0.8,4.1l4.2,8.1l5.3,6.3
		l0.3,5.9l7.1,4.9l8.1,3.7l3.2-1.9l5.1,4.6l6.7,2.3l7.7,8.3l5.3,1.1l1.9-2.4l4.2,4.3l-1.3,5.3l-5.7,7.9l-0.1,7.5l8.5,12.5l10.4,6.5
		l-0.5,12.9l-0.3,6.5l-1.6,3.8l-0.4,9l2.4,1c-4.3,0.5-8.7,0.8-13.2,0.8C64.5,243.2,12.8,191.5,12.8,128z M148.7,241.2l1.7-2.2
		l3.5-5.4l8.5-4.2l12.4-12l0.4-3l7.6-4.4l2.2-0.8l5.4-7.6l0.6-5.2l6.6-8.2l-0.6-3.6l-6.2-2.6l-12.8-2.8h-3.2l1.8-2l-2-3.4l0.2-1.6
		l-6.5-3.7l-3.5,0.7l-10.1-8.1l-3.7,1.1l-10.1-3.5l-7.5,3.2l-3.7,4.3l-3-2.9L121,165l-3.7-4.5l2.1-7.2l-4.7-1.7l-6.3,1.5l3.5-5.5
		l-0.4-3l2-3.8l-7.2,1.1l0.3,3.2l-2.7,2.1h-6.4l-3.8-6.2l0.6-8.2l2.4-5.9l5.3-2.9l8,2.4l-0.5-3.5l8,0.3l2.6,1l3.8,9.9l2.6-2.1
		l-1.5-11.7l11.5-7.7l-0.1-4.9l6.1-7.7l5.7-1.6l-0.8-1.8l2.3-3.5l4.3-1.3l4-1.2l-2.4,2.8l1.2,1.2l2.2-1.8l8.2-2l-1.8-2.8l-2.6,2.4
		l-3.2-1.4l-2.1-3.5l3.1-1.5l-1.6-2l-2.6,0.6l-0.9-1.5c0,0,0.5-2.1,1.3-2.1s9.6,1.9,9.6,1.9l4-2.7h1.9l-4.8,8l6.3,0.7l3.3,2.8l0.7-3
		l-1.5-3.7l-4.3-0.3l3-4.6l-2.6-7l-4-1.8l0.4-1.1l-2.6-1.4L168,65l-4-9l-5,5.4l-1.9-3.3l1.1-4.3l-3.5-1.1l-1.9-3.2l-6.4-1.1
		l-0.8,5.9l-3.2,3.6l2.4,2.3l-0.8,4l-5.3,2.9l0.5,6.7l-3.2,0.8l-2.9-3.7l2.1-5.9l-4.5-0.3l-9.3-6.4l-1.9-5.3l5.6-6.1l4.3-1.3l8.1-5
		l-1.5,3.3l1.4,2L140,44l2.9,1.9l2.4-1.3l-2.5-0.9l-2.8-3.9l7.2-2.1l-1.3-2.9l3.5-0.5l-3.6-2.9l3.4,1.3l3.5-0.3l1.5,2.5l-2.4,2.8
		l1.2,1.9l2.7-2.4l2.7,2.4l-4.8,3.2l-3.7-0.3l-1.6,1.8l2.4,1l3.8,0l2.3,4.1l6.7,3.7l3.4-3.4l-4-5.6l1.8-1.4l3.4,4.2l3.4-3.3
		l-7.5-5.6l2.7-1.9l-4.8-5.4l-3.4-2.4l-1.2-2.8l-4.2-1L146,23l-4.2,2l-1.5,4.1l2.9,1.1L143,33l-3.8,3l-1.3-1.9l1.7-0.9l-1.2-1.8
		l-1.6-3l-0.5-2.8l2.1-1.9h2.9l3.5-1.6l-7.2-1.3l-2.7,4.3l-4.5,2.9l-4.8,2.7l-0.3,1.9h-5.9l-2.1-2.9l5.1,0.3l3.2-2.4l-2.4-2.9
		l4.6-4.8h-4l-1.8,1.8l-4.9-2.1l-1.3-2.4l-6.3,0.1l-1.2,1.6l-5.8,3.1l0.5,1.6l4.5-1.3l0.3,2.4l-2.4,3.5l-9.1-3.7l-13.1,3.2l-2.8-1.9
		l-4.6-0.1c15.7-8,33.4-12.7,52.2-12.7c1.5,0,3,0.2,4.5,0.2l-16.9,1.8l5.4,3.8l11.6-1.4l8.8,2.8l14,3.2l6.4-3l4,0.4l2.2,4.2l6,1
		l4.2,4.2l2,3.8l-1,2.6l0.8,4l2.9,0.7l-3.2,2.7l6.4,15.7l6.3,3.3l0.7-4.1l3.3-6.1l1.7,0.7l4.5-2.7l6.7-0.5l-1.4-4.9
		c12.5,12.1,22.2,27,28.2,43.6l-0.6,0.9l-1,4.4l-2.3,0.2l3.7,9.6l-5.8-2.4l0.2,10.9l2.4,2.9l3.5-1.1l1.6-9.6l2.7,1.4l1.7,7.9
		c0,0.2,0.1,0.4,0.1,0.6l-5.8,2.9l-3.3-1.2l-4,12l-5.5,9.2l-1.3,13.9l4,10.1l3,2l7.4-4.7l1.3,3.1
		C225.5,202.6,191.1,233.5,148.7,241.2z"/>
	<polygon fill-rule="evenodd" clip-rule="evenodd" points="142.7,144.1 138.4,144.6 135.8,143.4 128.4,139.6 121.3,137.3 116.6,140 
		117.4,141 121.4,139.2 127.8,141.8 130.4,143.4 128.5,144.8 135.4,144.8 138.1,146.7 127.6,147.2 129.8,149 140.2,148.8 
		144.2,147.6 149.9,148.5 152.5,147.2 147.2,147 	"/>
	<polygon fill-rule="evenodd" clip-rule="evenodd" points="128.4,22.4 130.6,25.8 133.9,24.3 136.3,20.3 132.2,20.2 	"/>
	<polygon fill-rule="evenodd" clip-rule="evenodd" points="210.4,56.3 209.8,57.3 212.6,61.4 215.7,63.5 219,63 217.1,59.7 	"/>
	<polygon fill-rule="evenodd" clip-rule="evenodd" points="227,88.6 230.7,87.5 231.2,91 234.4,91.6 234.4,89.6 233,86 230.6,81.8 
		230.4,80 228.3,77.3 227.8,78.6 228.4,81.2 226.4,83.2 	"/>
</g>
</svg>
