<?xml version="1.0" encoding="utf-8"?>
<!-- Generator: Adobe Illustrator 18.1.0, SVG Export Plug-In . SVG Version: 6.00 Build 0)  -->
<!DOCTYPE svg PUBLIC "-//W3C//DTD SVG 1.1//EN" "http://www.w3.org/Graphics/SVG/1.1/DTD/svg11.dtd">
<svg version="1.1" id="レイヤー_1" xmlns="http://www.w3.org/2000/svg" xmlns:xlink="http://www.w3.org/1999/xlink" x="0px"
	 y="0px" viewBox="0 0 256 256" enable-background="new 0 0 256 256" xml:space="preserve">
<path d="M128,0C57.3,0,0,57.3,0,128c0,70.7,57.3,128,128,128s128-57.3,128-128C256,57.3,198.7,0,128,0z M227.8,78.6l0.5-1.3l2.1,2.7
	l0.2,1.8L233,86l1.4,3.6v2l-3.2-0.6l-0.5-3.5l-3.7,1.1l-0.6-5.4l2-2L227.8,78.6z M191,196.4l-0.6,5.2l-5.4,7.6l-2.2,0.8l-7.6,4.4
	l-0.4,3l-12.4,12l-8.5,4.2l-3.5,5.4l-1.7,2.2c-2.5,0.5-5,0.9-7.5,1.1l-2.4-1l0.4-9l1.6-3.8l0.3-6.5l0.5-12.9l-10.4-6.5l-8.5-12.5
	l0.1-7.5l5.7-7.9l1.3-5.3l-4.2-4.3l-1.9,2.4l-5.3-1.1l-7.7-8.3l-6.7-2.3l-5.1-4.6l-3.2,1.9l-8.1-3.7l-7.1-4.9l-0.3-5.9l-5.3-6.3
	l-4.2-8.1l-0.8-4.1l-2-1.6v4l4,7.8l0.6,3.8l1.8,2l-0.8,1.4l-3.8-4.7l0.6-1.9l-3.8-2.4L68,126l-2.3-3.8l-1-6.7l-4.5-2.7l-2.6-16.3
	l6.2-14.9l-4.6-13.4L61,51.8l-5.2-2.6l-3,2.2l-4.4,2.2l-2.6,3.2l-2.4,3L39.8,61l-8.6,7.6l-4.7,5.1c0.5-1,1.1-1.9,1.7-2.9l5.6-5.9
	l8.8-8.2L41.4,53l2.2-3.1c1.9-2,3.8-3.9,5.8-5.8l0.5-0.4l0-0.1c2.3-2.2,4.8-4.3,7.3-6.2l0.2-0.1l0-0.1c5.7-4.4,11.8-8.4,18.3-11.7
	l4.6,0.1l2.8,1.9l13.1-3.2l9.1,3.7l2.4-3.5l-0.3-2.4l-4.5,1.3l-0.5-1.6l5.8-3.1l1.2-1.6l6.3-0.1l1.3,2.4l4.9,2.1l1.8-1.8h4l-4.6,4.8
	l2.4,2.9l-3.2,2.4l-5.1-0.3l2.1,2.9h5.9l0.3-1.9l4.8-2.7l4.5-2.9l2.7-4.3l7.2,1.3l-3.5,1.6h-2.9l-2.1,1.9l0.5,2.8l1.6,3l1.2,1.8
	l-1.7,0.9l1.3,1.9l3.8-3l0.1-2.8l-2.9-1.1l1.5-4.1l4.2-2l6.8,1.4l4.2,1l1.2,2.8l3.4,2.4l4.8,5.4l-2.7,1.9l7.5,5.6l-3.4,3.3l-3.4-4.2
	l-1.8,1.4l4,5.6l-3.4,3.4l-6.7-3.7l-2.3-4.1l-3.8,0l-2.4-1l1.6-1.8l3.7,0.3l4.8-3.2l-2.7-2.4l-2.7,2.4l-1.2-1.9l2.4-2.8l-1.5-2.5
	l-3.5,0.3l-3.4-1.3l3.6,2.9l-3.5,0.5l1.3,2.9l-7.2,2.1l2.8,3.9l2.5,0.9l-2.4,1.3L140,44l-2.7,1.9l-1.4-2l1.5-3.3l-8.1,5l-4.3,1.3
	l-5.6,6.1l1.9,5.3l9.3,6.4l4.5,0.3l-2.1,5.9l2.9,3.7l3.2-0.8l-0.5-6.7l5.3-2.9l0.8-4l-2.4-2.3l3.2-3.6l0.8-5.9l6.4,1.1l1.9,3.2
	l3.5,1.1l-1.1,4.3l1.9,3.3l5-5.4l4,9l-1.6,1.7l2.6,1.4l-0.4,1.1l4,1.8l2.6,7l-3,4.6l4.3,0.3l1.5,3.7l-0.7,3l-3.3-2.8l-6.3-0.7l4.8-8
	h-1.9l-4,2.7c0,0-8.8-1.9-9.6-1.9s-1.3,2.1-1.3,2.1l0.9,1.5l2.6-0.6l1.6,2l-3.1,1.5l2.1,3.5l3.2,1.4l2.6-2.4l1.8,2.8l-8.2,2
	l-2.2,1.8l-1.2-1.2l2.4-2.8l-4,1.2l-4.3,1.3l-2.3,3.5l0.8,1.8l-5.7,1.6l-6.1,7.7l0.1,4.9l-11.5,7.7l1.5,11.7l-2.6,2.1l-3.8-9.9
	l-2.6-1l-8-0.3l0.5,3.5l-8-2.4l-5.3,2.9l-2.4,5.9l-0.6,8.2l3.8,6.2h6.4l2.7-2.1l-0.3-3.2l7.2-1.1l-2,3.8l0.4,3l-3.5,5.5l6.3-1.5
	l4.7,1.7l-2.1,7.2l3.7,4.5l5.6-1.8l3,2.9l3.7-4.3l7.5-3.2l10.1,3.5l3.7-1.1l10.1,8.1l3.5-0.7l6.5,3.7l-0.2,1.6l2,3.4l-1.8,2h3.2
	l12.8,2.8l6.2,2.6l0.6,3.6L191,196.4z M128.4,22.4l3.8-2.2l4.1,0.1l-2.4,4l-3.3,1.5L128.4,22.4z M135.4,144.8h-6.9l1.9-1.4l-2.6-1.6
	l-6.4-2.6l-4,1.8l-0.8-1l4.7-2.7l7.1,2.3l7.4,3.8l2.6,1.2l4.3-0.5l4.5,2.9l5.3,0.2l-2.7,1.3l-5.7-0.9l-4,1.2l-10.4,0.2l-2.2-1.8
	l10.5-0.5L135.4,144.8z M202.7,50.7l-4.5,2.7l-1.7-0.7l-3.3,6.1l-0.7,4.1l-6.3-3.3l-6.4-15.7l3.2-2.7l-2.9-0.7l-0.8-4l1-2.6l-2-3.8
	l-4.2-4.2l-6-1l-2.2-4.2l-4-0.4l-6.4,3l-14-3.2l-8.8-2.8L121,18.6l-5.4-3.8l16.9-1.8c2,0.1,4,0.1,6,0.3l1.3,0.1
	c26.3,2.7,50,14.4,68.1,31.8l1.4,4.9L202.7,50.7z M215.7,63.5l-3.1-2.1l-2.8-4.1l0.6-1.1l6.7,3.5L219,63L215.7,63.5z M236.8,158.9
	l-7.4,4.7l-3-2l-4-10.1l1.3-13.9l5.5-9.2l4-12l3.3,1.2l5.8-2.9c0-0.2-0.1-0.4-0.1-0.6l-1.7-7.9l-2.7-1.4l-1.6,9.6l-3.5,1.1l-2.4-2.9
	l-0.2-10.9l5.8,2.4l-3.7-9.6l2.3-0.2l1-4.4l0.6-0.9c2.9,8,5,16.4,6.1,25.2l0.1,0.6l0,0c0.5,4.4,0.8,8.8,0.8,13.3
	c0,11.8-1.8,23.2-5.1,34L236.8,158.9z"/>
</svg>
