<?xml version="1.0" encoding="utf-8"?>
<!DOCTYPE svg PUBLIC "-//W3C//DTD SVG 1.1//EN" "http://www.w3.org/Graphics/SVG/1.1/DTD/svg11.dtd">
<svg version="1.1" id="globe2-solid" xmlns="http://www.w3.org/2000/svg" xmlns:xlink="http://www.w3.org/1999/xlink" x="0px"
	 y="0px" viewBox="0 0 256 256" enable-background="new 0 0 256 256" xml:space="preserve">
<g>
	<polygon points="183,172.2 182.1,169.7 179.2,166.7 179.1,163.8 171.8,153.3 170.8,154.9 171,156.7 171.7,159.3 173.5,161.3
		173.3,163.7 175.7,165.5 176.2,170.1 178.6,172.5 179.6,176.5 182.1,177.7 184.8,180.6 185.7,179.2 184.5,173.3 	"/>
	<path d="M171.5,144.1l1.3-3.3l-0.2-3.9l-1.8-1l-2.9,2.1l-2.9-1.8l-3.3,1.5l-4.4-2.5l-0.9-1.4l-1.2-3.7l0.7-2.5l-2.8-1.1l-2.3,2.2
		l-2.1-0.8l-0.1,1.1l1.5,1.1l-0.1,1.4l3,1.8l-2.8,1.2l0.2,2.5l-2.9-1.2l-1-2.6l-3.4-4.9l0-3l-4.3-3.1l-3.3-2.1l-2.3-3.2l-0.6,1.4
		l-0.8-2.5l-2.4,1.4l0.4,2.3l1.3,0.8l3.2,4.2l2.5,0.4l0,1.1l1.4,0.4l2.7,1.8l-0.1,1.6l-2.3-1.6l-0.8,1.5l1.1,1.1l0.1,1l-1.9,2.5
		l-1.6,0.6l-0.1,2.2l-4.8-2l-0.1-1l2.6,0.1l3-0.7l1.1-1.8l-0.6-2.2l-4-3.1l-1.1,0.1l-4.6-4.3l-1.4-2.6l-2.2-0.8l-4.1,3.3l-4.4-1.3
		l-1.2,1l-0.4,3.6l-1.3,1.1l-1.9,0.5l-2.2,3.3l1,1.9l-1.8,2.4l-2.9,1.8l-3.5,0.2l-1.6,1.2l0.9,2.2l3.3-0.5l2.2,0.8l4-2.4l6.6-1.7
		l2,0.7l2-0.9l3.1,0.4l2.8-0.8l2.5,3.5l0.1,1.5l-1.7,1.5l1.6,1.6l2.2,1.3l3.6,0.1l2.5,1.2l0.6,1.8l2,0.2c0,0,2,1.2,2.6,1.2
		c0.7,0,2.3,1.2,2.3,1.2l1.5-1.9l-0.6-2l1-1.4l3-0.7l3.2,1.6l1.7,0.1l6.8,1.6l1.1,0.8l2-1.1l1.9-0.7l4.1,0.8l1.9-2L171.5,144.1z
		 M123.9,122.6l0.8,1.2l-0.5,2.1l-0.8-0.3l-0.7-2.3L123.9,122.6z M124.8,131.3l-1.3,0.5l-0.8-1.3l0.1-1.7l-0.6-1.1l0.2-1l1.6-0.3
		l1,0.5l0.1,1.6L124.8,131.3z M153.5,140.5l-2.2-0.6l-0.3-0.8l4.3,0.2l1,0.8L153.5,140.5z M169.9,140.2H169l-1,0.7l-1.2-0.3l0.1-0.8
		l1.3-0.8l2.3-0.4l-0.9,0.9L169.9,140.2z"/>
	<polygon points="171.5,115.3 173.1,116.3 173.7,114.6 173.3,113.1 175.5,111.4 172.4,112 167.6,114.7 169.7,116.2 	"/>
	<polygon points="163,126.2 165.2,124.7 169.7,123.7 172.7,125.5 175.9,126.5 177.5,125.9 180.1,125.9 181.1,123.9 179.7,121.5
		177.1,119.5 173.6,117.7 171.8,116.1 171.6,116.8 170.5,116.7 167.4,118.4 166.7,117.9 166.9,117 165.1,116.3 166.8,115.1
		166,114.2 164.3,114.5 162.5,112.9 160.8,115.1 160,117.7 159.3,117.3 158.7,120.4 157,122.7 158.4,125.3 	"/>
	<path d="M128,0C57.3,0,0,57.3,0,128c0,70.7,57.3,128,128,128s128-57.3,128-128C256,57.3,198.7,0,128,0z M174.2,52.6l0.5-0.1
		l1.7,0.9v1.1l-1.2,0.5l-1-0.7V52.6z M162.8,19l1.2,0.8l-1,1.4l-2.2-2L162.8,19z M157.6,19.4l1.4,0.8l-2,1.6l-4-1.8L157.6,19.4z
		 M129.4,21.1l0.3-1.1l1.7,0.9l1.4-0.9l4.7,0.9l0.3,0.9l-1.1,1.7l-1.1-0.1l-0.8,0.7h-0.9l-0.3-0.9l-1.8,0.4l-2.7-1.2l-1-1.3
		C128.4,21.1,129.4,21.1,129.4,21.1z M121.4,22.4l2.4-0.5l2.3,0.7v-1.1l1.4,0.2l5.1,2.9l4.5,3.2l-2,1.9l-0.4-0.9l-2.1,0.2l1-1.5
		l-1.1-0.4l-0.2-1.1l-1.5-0.1l-1.2,5.5l-0.8,0.6l-3.7-2.8l-0.2-2.1l-1.4-0.8l-0.8,0.7l-1.3-1.7l-0.4-2.1L121.4,22.4z M103.3,84.2
		l-2,1.8l3.8,0l-0.3,1.8l-1.4,1.4l0.4,0.8l1,0.7l1.1,2.4l1.6,1.2l1.2,3.8l1.7-0.1l0.9,1.5l-2.1,2.2l1.3,0.1l-0.1,1.1l-2,0.6
		l-2.5-0.4l-7.4,2.2l1.8-2.3l0.7-0.8h1.5l-1.6-1.2l-1.2,0.5l-0.4-0.8l1.9-1.3l-1-1.1l0.9-1.3l1.9,0l0.3-1.7l-0.7-0.2l-1-1.9
		l-1.2,0.4l-0.6-0.5l0.3-1.2l-1.9-3l1.1-1.5l-0.9,0.3L97.1,86l2.4-0.2l0.9-2.3l2.7-0.1L103.3,84.2z M97.9,98.4l-1,1.8l-4.6,1.9
		l-1.6-2.1l2.4-2.2l-1.6-0.9l0.9-0.9l-0.8-1l2.6-0.2l0.7-0.9h-1.6l3.3-1.8l1.5,0.2l1.1,1.9l-1.5,1.2L97.9,98.4z M25.8,74.9
		L25.8,74.9c0.9-1.6,1.9-3.3,2.9-4.9l0-0.4l1.1-2l0.1,0.3c1-1.6,1.9-3.2,2.9-4.7l2.2,3l-4.2,5.2l-1-1l0.6-1.5l-0.5-1
		c-0.4,0.7-0.8,1.4-1.3,2.1l-0.1,1.5l0.9,0.9l-0.7,2.9l-1.3,2.5L25.8,74.9c0,0.1,0,0.1,0,0.1l1.3,4.6l-0.8,0.7l-2.1-2
		c0.5-1.1,1-2.2,1.6-3.3L25.8,74.9z M19.1,165.2c-0.1-0.2-0.1-0.4-0.2-0.5l0.5,0.4L19.1,165.2z M26,111.8l-2.8-0.2l-0.3-0.9l1.1-0.4
		l-0.2-0.9l2.9-5.9l-1.4,0.1l-1.4,2.6l-1.9,0.2l-4.1-0.2l-1.2,3l1.2-0.5l1.3,0.5v1.1l-1.2,1l0.6,0.9l0.1,1.5l1.6,0.8l1.4-1.2
		l0.6,2.1l-1.8,1.7l-2.4,1.4l-1.6,2.1l-0.6-1.3l0.6-1.6h-1l-2.3,1.9c-0.1,1.3-0.1,2.6-0.2,4l0.1,0.1l-0.1,0c0-0.1,0-0.1,0-0.2
		l-0.6-1.1l0.5-2.6l0.3-0.3c1-13,4-25.4,8.9-36.9L21,86.2l0.7,2l1.8-1.9l2.3-4.2l0.1,8.7L25,92.4l1.1,1.6l2,2.5l0.7,2.5l-0.3,4.4
		l-1.4,2.6l0.5,0.8l-0.8,0.7l1.3,0.4l1.2-0.6l0.8,0.8l-0.1,3.7l-0.9,1.7l-3.2-0.4l1-1L26,111.8z M55.4,217.3
		c-11.7-9.6-21.6-21.4-28.8-34.8l1,1.2l2,0.3l4.4,4.2l2.1,4.3l3.1,3.3l7.9,4.6l1.9,0.6l4.8,3.7l1.3,0.6c0,0,0.8,0.1,1,0.6
		s1.3,2.9,1.3,2.9l0.3,1.6l-2.3,1.9l-0.2,1.3l-0.9,0.7L55.4,217.3z M64,61.3l-1.6,2.9l-7.2,2.6l-8.7,15l-2.7-2.2l-1.9,0.2l-1.4-6.8
		l0.7-4.4l-0.5-1.9l3.5-6.9l1.7-0.6l1.5-2l-0.7-0.4l-1.8,1.5l-1-1.2l1.3-3l2.6-1L46,52.3l1-2.4l2.8-6.2c13.1-12.2,29-21.3,46.6-26.3
		l3.5,1.4l0.8,0.9l-9.1,5.8l-1.4,5.8l-5.8,11.1l-3.7,4.6l0.5,4.8l-6.4,4.9l-6.4,1.8L64,61.3z M74.7,67.5l3.6-1.8l-2.1-0.3l-1.4,0.5
		l-0.7-1l3.1-2l3.2,1.2l3-0.9l2.3-0.9l3.2,2.6l-0.7,2l-6.5,3.8L77.3,70L74.7,67.5z M188.3,218.6l-8,10.2l-3.3,1.6l-1.5-0.5l0.6-1.1
		l-0.4-0.9l3.2-3.4l-0.3-1.7l1.5-1.6l2.9-1.2l4-3.3l1.4-1.9l0.4,1.7L188.3,218.6z M229.5,181l-1,0.4l0.5-2.3l0.9-2.2l0.4,2.8
		L229.5,181z M238.9,157.5l-1.6,0.6l-0.2,1.5l-5.7,8.8l-0.5,3.7l-1.4,4.2l-2.8,4l-1.3-14.9l-0.3-5l-1.6,2.2l-2.1-2.5l0.2-1.4
		l-1.8-1.4l-1.1-2.1l-6,1.5l-5.5-0.6l-0.7-2.3l-1.3,0.3l-2,0.9l-4.7-2.2l-2.3-4.2l-2.4,1.5l0.8,3.4l3.6,2.7l0.9,3.5l4-0.5l2.8-3.6
		l0,2.4l1.4,1.8l1.7-0.2l1.3,2.6l-2.8,5.2l-4.1,4.7l-3.1,0.9l-0.8,1.7l-4.6,2.2l-1.5,1.2l-3,1.3l-4.2,1.7l-0.6,1.7l1.6,2.1l2.1-1.3
		l8.4-2.5l-1,3.9l-3.1,5.2l-3.8,4.9l-3.1,2.2l-8,7.5l-3.6,5.5l1,0.8l-0.9,1.7l1.5,2.6l-1.3,5l-1.5,1.8l-4,2.2l-4.9,2.9l0.4,2.4
		l-0.9,2.2l-4,1.6l-1.3,2.5l-6.1,4l-3.4,1.2c-4,0.8-8.1,1.3-12.2,1.6l0.3-1.6l-1.5-2.1l-2.1-1.4l-1-2.9l0.1-1.7l-4-4.6l1.2-4.7
		l2.8-2.8l-1.1-3.5l0.4-1.1l-2.6-5.3l-3-2.2L125,206l1.7-5.2l-0.2-1.9l-1.9-1.4L120,198l-0.9-0.4l-0.8-2l-2.1-1.3l-3.7,0.2l-6.3,2.2
		l-3.4-1l-3.6,0.3l-2.3,1l-8.8-5.1l-2.7-4.4l-5.6-3.7l-1.6-5.1l2.2-5.6l-1.2-4.7l-0.7-1.8l1.8-3.7l5.7-8.1l2.8-1.3l2.5-3.1l-0.4-2.4
		l1.3-1.4l-0.3-1.2l5.2-3.9l0.9-3.5l-1.7-2.3l-1.9,0.4l-1.6-0.3l0.1-2.4l-1.3-1.5l1.7-5.2l-1-4.6l2.8-1.8l9.7,1.2l1.4-1.5l0-4.9
		l-1.5-1.7l0.4-1.3l-4-1.1l-0.6-1.9l2.8-0.8l2.8,0.4l-0.8-2.4l2.9,1.1l2.2-2.2l1.4-2.1l2.8-1.5l1.5-3.6l6.9-2.4l-1.4-3.8l0.2-2.2
		l-0.2-1.8l3.9-2.2l0.3,1.8l-1.4,1l1.8,1.4l-2.7,1.8l2.4,3.1l4-0.6l2.6,1.8l4-2.6l6.9-1.5l-1-3l0.9-2.9l1.7-0.6l1.4,2.1l1.2-1
		l-1.7-5.2l3-0.9l3.7,0.5l2.5-1.9l-1.7-1.8l-4.3,0.4l-4.8,1.6l-2.4-2.7l-0.9-5.6l4.7-6.2l-0.1-1.5l-3.7-0.7l-1.9,1.8l0.8,2.3
		l-5.8,5.8l0.2,4.1l2.8,2.2l-0.5,3l-2.6,1l0,3.2l0.8,0.8l-0.4,2.8l-0.9,0.6l-0.7-0.4l-1.5,0.3l-0.8,1.4l-2,0l-0.5-2.9l-3.8-7.1
		l-5.3,3.6l-3.2-2.4l-0.2-9.1l5.7-4.1l3.8-4.3l4.4-10l7.5-6.1l7.2-2l10,5.2l4,0.4l3.5,3.1l1.6-0.1l3.2,2.7l-1.1,3.4l-3.8,0l-3.3-1.1
		l-3.2-1.8l-0.5,0.6l4.3,3l-0.4,1.1l2,3.6l3.1,1.5l0.7-1.2l-2.7-2.1l0.5-1l4.6,2.1l0.6-0.7l-1.3-1.5l2.5-3.4l2.6,1l0.1-1.8l-1.2-1
		l-0.2-2.2l-1.9-2.2l2.9,0.6l2.1,2.1l-1.6,1.1l1.8,1.6l2-0.6l-0.4-1.5l2.9-2.4l3.2-1.2l1.2,1.6l4.7-1.4l1.9,1l-0.7-2.1l-2.9-1.9
		l-2.8-1.6l-4.1-1.3l-3.9-2.7l-0.1-5.5l-0.1-4l2.9-3.5l2.9-0.2l-0.4-1.8l2.2,0.6l1.8,2.3l-2.3,0.9l-3,3.5l-0.1,5.9l3.7,4.3l2.8,1.6
		l5.5,2.5l8,4.1l-0.6-1.1l-3-2.6l-2.5-4.2l0.4-1.6l-1.1-3.6l0.2-1.6l1.9,2.1l1.8,0.9l2,4l0.6-2.4l1.6,0.5l0.2-4.1l3.8-0.3l-3.4-2.6
		l1-0.7c25.4,21.1,41.6,53,41.6,88.5c0,9.6-1.3,18.8-3.5,27.7L238.9,157.5z"/>
	<polygon points="199.3,127.9 197.6,123 197.9,121.5 195.5,121.3 194.7,118.9 193.6,117.9 195.2,117.4 194.7,116.3 197.1,114.5
		197,112.2 193.8,111.6 192.4,112.3 191.3,112.9 190.9,114.5 189,115.2 188.3,118 190.1,119.2 191.1,122.9 194.1,126.9 193.7,130.6
		193.6,133.2 195.1,133.7 198.3,135.3 200.5,134.8 201.7,134.5 200.9,130.9 	"/>
</g>
</svg>
