<?xml version="1.0" encoding="utf-8"?>
<!DOCTYPE svg PUBLIC "-//W3C//DTD SVG 1.1//EN" "http://www.w3.org/Graphics/SVG/1.1/DTD/svg11.dtd">
<svg version="1.1" id="globe3-solid" xmlns="http://www.w3.org/2000/svg" xmlns:xlink="http://www.w3.org/1999/xlink" x="0px"
	 y="0px" viewBox="0 0 256 256" enable-background="new 0 0 256 256" xml:space="preserve">
<path d="M128,0C57.3,0,0,57.3,0,128c0,70.7,57.3,128,128,128s128-57.3,128-128C256,57.3,198.7,0,128,0z M40.3,77l-9,9l-6.8,14.8
	c0,0-1.9,5.3-4.5,6.3c-1-3.6-1-11.1-0.9-16.2C34.5,45.5,77.5,12.8,128,12.8c7.2,0,14.1,0.7,21,2l4,4.6l0.8,5l-2.3,0.5l2.5,2.5l4.5,1
	l-0.3,1.3l-3.5,1.5l-3-0.8l2.8,4.3l-1.5,7.8l-1,0.8l-1.3-0.5l-5.3,0.8l-2,2.8l-2.3-2.8l-0.5,2.8l-4,0.8l-0.5-2.3h-1.8l1.3,2.5
	l-2,3.5l-1.8-1l-1.5-4.3l6.3-3.8l6.5-0.3l0.3-1.3l4.8-1.5l-0.3-1.5l1.3,0.5l0.6-4.5l1.2-1l-2.5-2.2c0,0,2.8-0.9,3-2.5
	c-0.9-1.1-0.8-4-0.8-4l-3.8-6.3v5l-2.5,3L133.9,29l-7.3,6.3l3.8,7.3l-6.8,1.5l0.5-6l-2.8-3.5L109.6,43l5,9.5l-6.8,10.3l-6.5,3.8
	l-1.3,2.3L82.6,80l-1.8-2.5l4.3-2.5l-2.3-3.3l-8,4.8l1.5,5.5l4.5,5v7.8l-11.3,9.3v-4.3l-8.3-7.8l-1.5,15.5l6,4.3l1.5,10.8l-0.8,1
	l-7.5-8.8l-3.8-9.5L56,84.1l-6,2.5L48.5,72l-7.3,2L40.3,77z M114.6,137.4l-0.8,2.8h-9.8l-1.5-5.3l-10.8,1.4l-6.7-3h-3.5l-2.3-4.5
	l-1.5-6.8l1.8-1.5l3,0.8l13-10.5l1.8-3.8l2.3-0.8l1,3.8l3.5,1.8l-1.5,2.8h-2l-0.8,2.5l3.5,6.5l15-1.5v2.3l-7.3,7L114.6,137.4z
	 M112.9,105.8l-1.3-7.2l-3.8-7.8l-1.5-7l1.5-0.2v-4.3l1.8-1.5l3.5,0.8v5.3l-2.3,1v1.5l2.5,2l2.8,1l1,3.5l3.5,0.8v3l3,3.8l-1.5,2.1
	l2.6,4.6l-4,3.7L112.9,105.8z M107.9,66.5l2.7-3.2l2.6-0.5l-3.3,7.5l-1.6-1.3L107.9,66.5z M70.3,142.9l-9-8l-12.8-23.3l4.5,0.8
	l4.5,4.5l5.8,4.5l3.3,4l-0.8,2.3l3.8,2.8l2.3-0.8l2.7,11.6l16.9,1.9l24,6.8l0.1,2.9l-30.3-5.3L70.3,142.9z M162.2,223.7l-4-0.4v-3.5
	h6L162.2,223.7z M182.3,196.5l-4.5,7.5l-7.5,9.8l-6,2.3l-12.8-0.8l-0.8-3.3l-8.3-2.8l-2.5-5.3l-5.5-1.5l-16.8,5.3h-3.3l-6.8,1.5
	l-7.3-1.8l-7.5-21l1-5.8l30.8-19.5l3,2.8l3.3,0.3l0.3-3.8l6-6l11.3,2.3l0.8,1.8l-3.5,5.3l11,7.3l2-0.8l4-16.5h1.5l1.5,7.8l3.8,2
	l1.5,10l5.3,3.5l0.8,4l2.3,1.3l3.8,6L182.3,196.5z M183,153.7c0,0-2-0.7-2.5-1.5c-1.4,0-4.3,0-4.3,0l-3-5l-6-0.8l-0.8,2.8l-6,0.8
	l-8.3-2.3l0.1-1.8l2.2-1.4l-4.4-5.2l-4.8-2l-23-1.5l3-4.5l-0.3-5.6l1.8-6.5l6.8,8.6l9-0.3l2.3,6.3l1.8,0.5l6-5.3l14.8,5.3l5.3,3.8
	l11.9,14.4L183,153.7z"/>
</svg>
