<?xml version="1.0" encoding="utf-8"?>
<!-- Generator: Adobe Illustrator 18.1.0, SVG Export Plug-In . SVG Version: 6.00 Build 0)  -->
<!DOCTYPE svg PUBLIC "-//W3C//DTD SVG 1.1//EN" "http://www.w3.org/Graphics/SVG/1.1/DTD/svg11.dtd">
<svg version="1.1" id="レイヤー_1" xmlns="http://www.w3.org/2000/svg" xmlns:xlink="http://www.w3.org/1999/xlink" x="0px"
	 y="0px" viewBox="0 0 256 256" enable-background="new 0 0 256 256" xml:space="preserve">
<g>
	<path d="M128,0C57.3,0,0,57.3,0,128c0,70.7,57.3,128,128,128s128-57.3,128-128C256,57.3,198.7,0,128,0z M55.4,217.3l-1.2-3l0.9-0.7
		l0.2-1.3l2.3-1.9l-0.3-1.6c0,0-1.1-2.4-1.3-2.9s-1-0.6-1-0.6l-1.3-0.6l-4.8-3.7l-1.9-0.6l-7.9-4.6l-3.1-3.3l-2.1-4.3l-4.4-4.2
		l-2-0.3l-1-1.2c-3-5.5-5.4-11.3-7.5-17.3l0.3-0.2l-0.5-0.4c-3.9-11.5-6.1-23.8-6.1-36.7c0-1.5,0.2-2.9,0.2-4.4l0.1,0l-0.1-0.1
		c0.1-1.3,0.1-2.6,0.2-4l2.3-1.9h1l-0.6,1.6l0.6,1.3l1.6-2.1l2.4-1.4l1.8-1.7l-0.6-2.1l-1.4,1.2l-1.6-0.8l-0.1-1.5l-0.6-0.9l1.2-1
		v-1.1l-1.3-0.5l-1.2,0.5l1.2-3l4.1,0.2l1.9-0.2l1.4-2.6l1.4-0.1l-2.9,5.9l0.2,0.9l-1.1,0.4l0.3,0.9l2.8,0.2l0.9,0.3l-1,1l3.2,0.4
		l0.9-1.7l0.1-3.7l-0.8-0.8l-1.2,0.6l-1.3-0.4l0.8-0.7l-0.5-0.8l1.4-2.6l0.3-4.4l-0.7-2.5l-2-2.5L25,92.4l0.9-1.6l-0.1-8.7l-2.3,4.2
		l-1.8,1.9l-0.7-2l1.2-3.6c0.6-1.5,1.4-2.9,2.1-4.3l2.1,2l0.8-0.7L25.8,75c0,0,0,0,0,0l1.6,2.8l1.3-2.5l0.7-2.9l-0.9-0.9l0.1-1.5
		c0.4-0.7,0.8-1.4,1.3-2.1l0.5,1l-0.6,1.5l1,1l4.2-5.2l-2.2-3c4.9-7.2,10.6-13.7,17-19.6L47,49.9l-1,2.4l1.8,0.9l-2.6,1l-1.3,3
		l1,1.2l1.8-1.5l0.7,0.4l-1.5,2l-1.7,0.6l-3.5,6.9l0.5,1.9l-0.7,4.4l1.4,6.8l1.9-0.2l2.7,2.2l8.7-15l7.2-2.6l1.6-2.9l4.5-2.9
		l6.4-1.8l6.4-4.9l-0.5-4.8l3.7-4.6l5.8-11.1l1.4-5.8l9.1-5.8l-0.8-0.9l-3.5-1.4c10-2.9,20.6-4.5,31.5-4.5c28,0,53.6,10,73.6,26.7
		l-1,0.7l3.4,2.6l-3.8,0.3l-0.2,4.1l-1.6-0.5l-0.6,2.4l-2-4l-1.8-0.9l-1.9-2.1l-0.2,1.6l1.1,3.6l-0.4,1.6l2.5,4.2l3,2.6l0.6,1.1
		l-8-4.1l-5.5-2.5l-2.8-1.6l-3.7-4.3l0.1-5.9l3-3.5l2.3-0.9l-1.8-2.3l-2.2-0.6l0.4,1.8l-2.9,0.2l-2.9,3.5l0.1,4l0.1,5.5l3.9,2.7
		l4.1,1.3l2.8,1.6l2.9,1.9l0.7,2.1l-1.9-1l-4.7,1.4l-1.2-1.6l-3.2,1.2l-2.9,2.4l0.4,1.5l-2,0.6l-1.8-1.6l1.6-1.1l-2.1-2.1l-2.9-0.6
		l1.9,2.2l0.2,2.2l1.2,1l-0.1,1.8l-2.6-1l-2.5,3.4l1.3,1.5l-0.6,0.7l-4.6-2.1l-0.5,1l2.7,2.1l-0.7,1.2l-3.1-1.5l-2-3.6l0.4-1.1
		l-4.3-3l0.5-0.6l3.2,1.8l3.3,1.1l3.8,0l1.1-3.4l-3.2-2.7l-1.6,0.1l-3.5-3.1l-4-0.4l-10-5.2l-7.2,2l-7.5,6.1l-4.4,10l-3.8,4.3
		l-5.7,4.1l0.2,9.1l3.2,2.4l5.3-3.6l3.8,7.1l0.5,2.9l2,0l0.8-1.4l1.5-0.3l0.7,0.4l0.9-0.6l0.4-2.8l-0.8-0.8l0-3.2l2.6-1l0.5-3
		l-2.8-2.2l-0.2-4.1l5.8-5.8l-0.8-2.3l1.9-1.8l3.7,0.7l0.1,1.5l-4.7,6.2l0.9,5.6l2.4,2.7l4.8-1.6l4.3-0.4l1.7,1.8l-2.5,1.9l-3.7-0.5
		l-3,0.9l1.7,5.2l-1.2,1l-1.4-2.1l-1.7,0.6l-0.9,2.9l1,3l-6.9,1.5l-4,2.6l-2.6-1.8l-4,0.6l-2.4-3.1l2.7-1.8l-1.8-1.4l1.4-1l-0.3-1.8
		l-3.9,2.2l0.2,1.8l-0.2,2.2l1.4,3.8l-6.9,2.4l-1.5,3.6l-2.8,1.5l-1.4,2.1l-2.2,2.2l-2.9-1.1l0.8,2.4l-2.8-0.4l-2.8,0.8l0.6,1.9
		l4,1.1l-0.4,1.3l1.5,1.7l0,4.9l-1.4,1.5l-9.7-1.2l-2.8,1.8l1,4.6l-1.7,5.2l1.3,1.5l-0.1,2.4l1.6,0.3l1.9-0.4l1.7,2.3l-0.9,3.5
		l-5.2,3.9l0.3,1.2l-1.3,1.4l0.4,2.4l-2.5,3.1l-2.8,1.3l-5.7,8.1l-1.8,3.7l0.7,1.8l1.2,4.7l-2.2,5.6l1.6,5.1l5.6,3.7l2.7,4.4
		l8.8,5.1l2.3-1l3.6-0.3l3.4,1l6.3-2.2l3.7-0.2l2.1,1.3l0.8,2l0.9,0.4l4.6-0.4l1.9,1.4l0.2,1.9L125,206l1.9,2.8l3,2.2l2.6,5.3
		l-0.4,1.1l1.1,3.5l-2.8,2.8l-1.2,4.7l4,4.6l-0.1,1.7l1,2.9l2.1,1.4l1.5,2.1l-0.3,1.6c-3.1,0.3-6.2,0.5-9.4,0.5
		C100.5,243.2,75.2,233.5,55.4,217.3z M191.1,122.9l-1.1-3.7l-1.7-1.2l0.7-2.8l1.9-0.7l0.4-1.6l1.1-0.6l1.4-0.7l3.1,0.6l0.1,2.3
		l-2.4,1.8l0.5,1.1l-1.6,0.5l1.1,1l0.8,2.4l2.4,0.2l-0.3,1.5l1.7,4.9l1.6,3l0.8,3.5l-1.2,0.4l-2.2,0.5l-3.2-1.7l-1.5-0.5l0.1-2.6
		l0.4-3.8L191.1,122.9z M171.7,159.3l-0.7-2.6l-0.2-1.8l1-1.6l7.3,10.5l0.1,2.9l2.9,3l0.9,2.5l1.5,1.1l1.2,5.9l-0.9,1.4l-2.7-3
		l-2.5-1.1l-1.1-4l-2.4-2.4l-0.4-4.6l-2.4-1.8l0.2-2.4L171.7,159.3z M145.6,145.3l-1,1.4l0.6,2l-1.5,1.9c0,0-1.6-1.2-2.3-1.2
		c-0.7,0-2.6-1.2-2.6-1.2l-2-0.2l-0.6-1.8l-2.5-1.2l-3.6-0.1l-2.2-1.3l-1.6-1.6l1.7-1.5l-0.1-1.5l-2.5-3.5l-2.8,0.8l-3.1-0.4l-2,0.9
		l-2-0.7l-6.6,1.7l-4,2.4l-2.2-0.8l-3.3,0.5l-0.9-2.2l1.6-1.2l3.5-0.2l2.9-1.8l1.8-2.4l-1-1.9l2.2-3.3l1.9-0.5l1.3-1.1l0.4-3.6
		l1.2-1l4.4,1.3l4.1-3.3l2.2,0.8l1.4,2.6l4.6,4.3l1.1-0.1l4,3.1l0.6,2.2l-1.1,1.8l-3,0.7l-2.6-0.1l0.1,1l4.8,2l0.1-2.2l1.6-0.6
		l1.9-2.5l-0.1-1l-1.1-1.1l0.8-1.5l2.3,1.6l0.1-1.6l-2.7-1.8l-1.4-0.4l0-1.1l-2.5-0.4l-3.2-4.2l-1.3-0.8l-0.4-2.3l2.4-1.4l0.8,2.5
		l0.6-1.4l2.3,3.2l3.3,2.1l4.3,3.1l0,3l3.4,4.9l1,2.6l2.9,1.2l-0.2-2.5l2.8-1.2l-3-1.8l0.1-1.4l-1.5-1.1l0.1-1.1l2.1,0.8l2.3-2.2
		l2.8,1.1l-0.7,2.5l1.2,3.7l0.9,1.4l4.4,2.5l3.3-1.5l2.9,1.8l2.9-2.1l1.8,1l0.2,3.9l-1.3,3.3l0,1.7l-1.9,2l-4.1-0.8l-1.9,0.7l-2,1.1
		l-1.1-0.8l-6.8-1.6l-1.7-0.1l-3.2-1.6L145.6,145.3z M166.9,117l-0.2,0.9l0.7,0.6l3.1-1.7l1.1,0l0.2-0.7l1.8,1.7l3.5,1.8l2.6,2
		l1.4,2.4l-1,2h-2.6l-1.6,0.6l-3.2-1l-3-1.8l-4.5,0.9l-2.2,1.6l-4.6-0.9l-1.4-2.6l1.7-2.3l0.6-3.1l0.7,0.3l0.8-2.6l1.7-2.2l1.8,1.7
		l1.7-0.4l0.8,1l-1.7,1.1L166.9,117z M173.7,114.6l-0.6,1.8l-1.6-1l-1.8,0.9l-2-1.5l4.8-2.7l3.1-0.6l-2.2,1.7L173.7,114.6z
		 M149.6,241.1l3.4-1.2l6.1-4l1.3-2.5l4-1.6l0.9-2.2l-0.4-2.4l4.9-2.9l4-2.2l1.5-1.8l1.3-5l-1.5-2.6l0.9-1.7l-1-0.8l3.6-5.5l8-7.5
		l3.1-2.2l3.8-4.9l3.1-5.2l1-3.9l-8.4,2.5l-2.1,1.3l-1.6-2.1l0.6-1.7l4.2-1.7l3-1.3l1.5-1.2l4.6-2.2l0.8-1.7l3.1-0.9l4.1-4.7
		l2.8-5.2l-1.3-2.6l-1.7,0.2l-1.4-1.8l0-2.4l-2.8,3.6l-4,0.5l-0.9-3.5l-3.6-2.7l-0.8-3.4l2.4-1.5l2.3,4.2l4.7,2.2l2-0.9l1.3-0.3
		l0.7,2.3l5.5,0.6l6-1.5l1.1,2.1l1.8,1.4l-0.2,1.4l2.1,2.5l1.6-2.2l0.3,5l1.3,14.9l2.8-4l1.4-4.2l0.5-3.7l5.7-8.8l0.2-1.5l1.6-0.6
		l0.8-1.8C228.9,199,193.7,232.7,149.6,241.1z"/>
	<polygon points="99.4,87.4 98.3,89 100.2,92 99.9,93.1 100.5,93.7 101.7,93.3 102.7,95.2 103.4,95.4 103.1,97.1 101.2,97.1 
		100.3,98.4 101.3,99.5 99.4,100.8 99.8,101.6 101,101.1 102.6,102.3 101.1,102.3 100.4,103.1 98.6,105.4 106,103.2 108.5,103.6 
		110.5,103 110.6,101.9 109.3,101.8 111.4,99.6 110.5,98.1 108.8,98.2 107.6,94.4 106,93.2 104.9,90.8 103.9,90.1 103.5,89.3 
		104.9,87.9 105.2,86 101.3,86 103.3,84.2 103.1,83.4 100.4,83.4 99.5,85.8 97.1,86 98.5,87.8 	"/>
	<polygon points="92.3,102.1 96.9,100.2 97.9,98.4 97.7,95.4 99.2,94.2 98.1,92.3 96.6,92.1 93.3,93.9 94.9,93.9 94.2,94.8 91.6,95 
		92.4,96 91.5,96.9 93.1,97.8 90.7,100 	"/>
	<polygon points="124.2,125.9 124.7,123.8 123.9,122.6 122.7,123.3 123.4,125.6 	"/>
	<polygon points="169,140.2 169.9,140.2 169.6,139.5 170.5,138.6 168.2,139 166.9,139.8 166.8,140.6 168,140.9 	"/>
	<polygon points="229,179.1 228.5,181.4 229.5,181 230.3,179.7 229.9,176.9 	"/>
	<polygon points="187,216.7 183,220 180.1,221.2 178.6,222.8 178.9,224.5 175.7,227.9 176.1,228.8 175.5,229.9 177,230.4 
		180.3,228.8 188.3,218.6 188.8,216.5 188.4,214.8 	"/>
	<polygon points="124,126.4 122.4,126.7 122.2,127.7 122.8,128.8 122.7,130.5 123.5,131.8 124.8,131.3 125.1,128.5 125,126.9 	"/>
	<polygon points="176.4,54.5 176.4,53.4 174.7,52.5 174.2,52.6 174.2,54.3 175.2,55 	"/>
	<polygon points="156.3,140.1 155.3,139.3 151,139.1 151.3,139.9 153.5,140.5 	"/>
	<polygon points="122.7,27 123.5,26.3 124.9,27.1 125.1,29.2 128.8,32 129.6,31.4 130.8,25.9 132.3,26 132.5,27.1 133.6,27.5 
		132.6,29 134.7,28.8 135.1,29.7 137.1,27.8 132.6,24.6 127.5,21.7 126.1,21.5 126.1,22.6 123.8,21.9 121.4,22.4 121,23.2 
		121.4,25.3 	"/>
	<path d="M131.8,23.6l1.8-0.4l0.3,0.9h0.9l0.8-0.7l1.1,0.1l1.1-1.7l-0.3-0.9l-4.7-0.9l-1.4,0.9l-1.7-0.9l-0.3,1.1c0,0-1,0-1.3,0
		l1,1.3L131.8,23.6z"/>
	<polygon points="88.3,66.8 89,64.8 85.7,62.2 83.4,63.1 80.5,64 77.2,62.8 74.1,64.8 74.8,65.8 76.2,65.3 78.2,65.6 74.7,67.5 
		77.3,70 81.8,70.6 	"/>
	<polygon points="159,20.2 157.6,19.4 153,20 157,21.8 	"/>
	<polygon points="164,19.8 162.8,19 160.8,19.2 163,21.2 	"/>
</g>
</svg>
